<svg width="1435" height="831" viewBox="0 0 1435 831" fill="none" xmlns="http://www.w3.org/2000/svg">
<rect x="308.493" y="764.702" width="818.013" height="65.5951" fill="#F0F0F0"/>
<rect width="1435" height="174.757" fill="#9D7DD8"/>
<path d="M72.37 226.54V235H68.5V226.54L59.83 213.64H64.24L70.42 223.3L76.63 213.64H81.04L72.37 226.54ZM86.4041 235.24C84.8641 235.24 83.5041 234.92 82.3241 234.28C81.1641 233.64 80.2641 232.73 79.6241 231.55C79.0041 230.35 78.6941 228.95 78.6941 227.35C78.6941 225.75 79.0041 224.36 79.6241 223.18C80.2641 221.98 81.1641 221.06 82.3241 220.42C83.5041 219.78 84.8641 219.46 86.4041 219.46C87.9241 219.46 89.2641 219.78 90.4241 220.42C91.5841 221.06 92.4741 221.98 93.0941 223.18C93.7341 224.36 94.0541 225.75 94.0541 227.35C94.0541 228.95 93.7341 230.35 93.0941 231.55C92.4741 232.73 91.5841 233.64 90.4241 234.28C89.2641 234.92 87.9241 235.24 86.4041 235.24ZM86.3741 232.3C87.6541 232.3 88.6241 231.89 89.2841 231.07C89.9641 230.23 90.3041 228.99 90.3041 227.35C90.3041 225.73 89.9641 224.5 89.2841 223.66C88.6041 222.8 87.6441 222.37 86.4041 222.37C85.1441 222.37 84.1741 222.8 83.4941 223.66C82.8141 224.5 82.4741 225.73 82.4741 227.35C82.4741 228.99 82.8041 230.23 83.4641 231.07C84.1441 231.89 85.1141 232.3 86.3741 232.3ZM111.088 219.85V235H107.428V232.66C106.948 233.5 106.308 234.14 105.508 234.58C104.708 235.02 103.788 235.24 102.748 235.24C99.048 235.24 97.198 233.16 97.198 229V219.85H100.918V229.03C100.918 230.13 101.138 230.94 101.578 231.46C102.038 231.98 102.738 232.24 103.678 232.24C104.778 232.24 105.658 231.88 106.318 231.16C106.978 230.44 107.308 229.48 107.308 228.28V219.85H111.088ZM119.929 222.67V229.45C119.929 231.23 120.759 232.12 122.419 232.12C122.879 232.12 123.379 232.04 123.919 231.88V234.85C123.259 235.09 122.459 235.21 121.519 235.21C119.799 235.21 118.479 234.73 117.559 233.77C116.639 232.81 116.179 231.43 116.179 229.63V222.67H113.269V219.85H116.179V216.16L119.929 214.9V219.85H123.949V222.67H119.929ZM140.326 219.85V235H136.666V232.66C136.186 233.5 135.546 234.14 134.746 234.58C133.946 235.02 133.026 235.24 131.986 235.24C128.286 235.24 126.436 233.16 126.436 229V219.85H130.156V229.03C130.156 230.13 130.376 230.94 130.816 231.46C131.276 231.98 131.976 232.24 132.916 232.24C134.016 232.24 134.896 231.88 135.556 231.16C136.216 230.44 136.546 229.48 136.546 228.28V219.85H140.326ZM153.037 219.46C154.357 219.46 155.517 219.79 156.517 220.45C157.537 221.09 158.327 222 158.887 223.18C159.447 224.36 159.727 225.73 159.727 227.29C159.727 228.85 159.437 230.24 158.857 231.46C158.297 232.66 157.507 233.59 156.487 234.25C155.487 234.91 154.337 235.24 153.037 235.24C151.917 235.24 150.917 235 150.037 234.52C149.177 234.04 148.527 233.37 148.087 232.51V235H144.397V212.92H148.117V222.13C148.577 221.29 149.237 220.64 150.097 220.18C150.957 219.7 151.937 219.46 153.037 219.46ZM152.047 232.3C153.287 232.3 154.247 231.86 154.927 230.98C155.607 230.1 155.947 228.87 155.947 227.29C155.947 225.73 155.607 224.53 154.927 223.69C154.247 222.83 153.277 222.4 152.017 222.4C150.757 222.4 149.787 222.83 149.107 223.69C148.427 224.55 148.087 225.77 148.087 227.35C148.087 228.95 148.427 230.18 149.107 231.04C149.787 231.88 150.767 232.3 152.047 232.3ZM176.261 227.62H165.821C165.901 229.24 166.301 230.44 167.021 231.22C167.761 231.98 168.851 232.36 170.291 232.36C171.951 232.36 173.491 231.82 174.911 230.74L175.991 233.32C175.271 233.9 174.381 234.37 173.321 234.73C172.281 235.07 171.221 235.24 170.141 235.24C167.661 235.24 165.711 234.54 164.291 233.14C162.871 231.74 162.161 229.82 162.161 227.38C162.161 225.84 162.471 224.47 163.091 223.27C163.711 222.07 164.581 221.14 165.701 220.48C166.821 219.8 168.091 219.46 169.511 219.46C171.591 219.46 173.231 220.14 174.431 221.5C175.651 222.84 176.261 224.69 176.261 227.05V227.62ZM169.601 222.16C168.601 222.16 167.781 222.46 167.141 223.06C166.521 223.64 166.121 224.49 165.941 225.61H172.991C172.871 224.47 172.521 223.61 171.941 223.03C171.381 222.45 170.601 222.16 169.601 222.16Z" fill="black"/>
<path d="M343.31 73.64H357.26V76.73H347.15V82.58H356.66V85.7H347.15V95H343.31V73.64ZM368.075 79.49C368.655 79.49 369.155 79.57 369.575 79.73L369.545 83.15C368.905 82.89 368.245 82.76 367.565 82.76C366.285 82.76 365.305 83.13 364.625 83.87C363.965 84.61 363.635 85.59 363.635 86.81V95H359.915V84.14C359.915 82.54 359.835 81.11 359.675 79.85H363.185L363.485 82.52C363.865 81.54 364.465 80.79 365.285 80.27C366.105 79.75 367.035 79.49 368.075 79.49ZM384.63 87.62H374.19C374.27 89.24 374.67 90.44 375.39 91.22C376.13 91.98 377.22 92.36 378.66 92.36C380.32 92.36 381.86 91.82 383.28 90.74L384.36 93.32C383.64 93.9 382.75 94.37 381.69 94.73C380.65 95.07 379.59 95.24 378.51 95.24C376.03 95.24 374.08 94.54 372.66 93.14C371.24 91.74 370.53 89.82 370.53 87.38C370.53 85.84 370.84 84.47 371.46 83.27C372.08 82.07 372.95 81.14 374.07 80.48C375.19 79.8 376.46 79.46 377.88 79.46C379.96 79.46 381.6 80.14 382.8 81.5C384.02 82.84 384.63 84.69 384.63 87.05V87.62ZM377.97 82.16C376.97 82.16 376.15 82.46 375.51 83.06C374.89 83.64 374.49 84.49 374.31 85.61H381.36C381.24 84.47 380.89 83.61 380.31 83.03C379.75 82.45 378.97 82.16 377.97 82.16ZM401.066 87.62H390.626C390.706 89.24 391.106 90.44 391.826 91.22C392.566 91.98 393.656 92.36 395.096 92.36C396.756 92.36 398.296 91.82 399.716 90.74L400.796 93.32C400.076 93.9 399.186 94.37 398.126 94.73C397.086 95.07 396.026 95.24 394.946 95.24C392.466 95.24 390.516 94.54 389.096 93.14C387.676 91.74 386.966 89.82 386.966 87.38C386.966 85.84 387.276 84.47 387.896 83.27C388.516 82.07 389.386 81.14 390.506 80.48C391.626 79.8 392.896 79.46 394.316 79.46C396.396 79.46 398.036 80.14 399.236 81.5C400.456 82.84 401.066 84.69 401.066 87.05V87.62ZM394.406 82.16C393.406 82.16 392.586 82.46 391.946 83.06C391.326 83.64 390.926 84.49 390.746 85.61H397.796C397.676 84.47 397.326 83.61 396.746 83.03C396.186 82.45 395.406 82.16 394.406 82.16ZM357.5 131.99H347.06L344.9 137H341L350.66 115.64H353.81L363.5 137H359.63L357.5 131.99ZM356.21 128.99L352.28 119.84L348.35 128.99H356.21ZM372.41 137.24C370.83 137.24 369.46 136.92 368.3 136.28C367.14 135.64 366.25 134.74 365.63 133.58C365.01 132.4 364.7 131.02 364.7 129.44C364.7 127.86 365.02 126.47 365.66 125.27C366.32 124.07 367.24 123.14 368.42 122.48C369.62 121.8 371 121.46 372.56 121.46C373.64 121.46 374.68 121.63 375.68 121.97C376.7 122.31 377.51 122.78 378.11 123.38L377.06 126.02C376.42 125.5 375.74 125.11 375.02 124.85C374.3 124.57 373.59 124.43 372.89 124.43C371.53 124.43 370.47 124.86 369.71 125.72C368.95 126.56 368.57 127.78 368.57 129.38C368.57 130.98 368.94 132.2 369.68 133.04C370.44 133.88 371.51 134.3 372.89 134.3C373.59 134.3 374.3 134.16 375.02 133.88C375.74 133.6 376.42 133.2 377.06 132.68L378.11 135.32C377.47 135.92 376.64 136.39 375.62 136.73C374.6 137.07 373.53 137.24 372.41 137.24ZM387.498 137.24C385.918 137.24 384.548 136.92 383.388 136.28C382.228 135.64 381.338 134.74 380.718 133.58C380.098 132.4 379.788 131.02 379.788 129.44C379.788 127.86 380.108 126.47 380.748 125.27C381.408 124.07 382.328 123.14 383.508 122.48C384.708 121.8 386.088 121.46 387.648 121.46C388.728 121.46 389.768 121.63 390.768 121.97C391.788 122.31 392.598 122.78 393.198 123.38L392.148 126.02C391.508 125.5 390.828 125.11 390.108 124.85C389.388 124.57 388.678 124.43 387.978 124.43C386.618 124.43 385.558 124.86 384.798 125.72C384.038 126.56 383.658 127.78 383.658 129.38C383.658 130.98 384.028 132.2 384.768 133.04C385.528 133.88 386.598 134.3 387.978 134.3C388.678 134.3 389.388 134.16 390.108 133.88C390.828 133.6 391.508 133.2 392.148 132.68L393.198 135.32C392.558 135.92 391.728 136.39 390.708 136.73C389.688 137.07 388.618 137.24 387.498 137.24ZM408.976 129.62H398.536C398.616 131.24 399.016 132.44 399.736 133.22C400.476 133.98 401.566 134.36 403.006 134.36C404.666 134.36 406.206 133.82 407.626 132.74L408.706 135.32C407.986 135.9 407.096 136.37 406.036 136.73C404.996 137.07 403.936 137.24 402.856 137.24C400.376 137.24 398.426 136.54 397.006 135.14C395.586 133.74 394.876 131.82 394.876 129.38C394.876 127.84 395.186 126.47 395.806 125.27C396.426 124.07 397.296 123.14 398.416 122.48C399.536 121.8 400.806 121.46 402.226 121.46C404.306 121.46 405.946 122.14 407.146 123.5C408.366 124.84 408.976 126.69 408.976 129.05V129.62ZM402.316 124.16C401.316 124.16 400.496 124.46 399.856 125.06C399.236 125.64 398.836 126.49 398.656 127.61H405.706C405.586 126.47 405.236 125.61 404.656 125.03C404.096 124.45 403.316 124.16 402.316 124.16ZM417.701 137.24C414.961 137.24 412.781 136.6 411.161 135.32L412.211 132.68C413.831 133.88 415.681 134.48 417.761 134.48C418.661 134.48 419.351 134.33 419.831 134.03C420.331 133.73 420.581 133.31 420.581 132.77C420.581 132.31 420.411 131.95 420.071 131.69C419.731 131.41 419.151 131.17 418.331 130.97L415.811 130.4C413.051 129.8 411.671 128.39 411.671 126.17C411.671 125.25 411.931 124.44 412.451 123.74C412.971 123.02 413.701 122.46 414.641 122.06C415.581 121.66 416.671 121.46 417.911 121.46C418.991 121.46 420.031 121.63 421.031 121.97C422.031 122.29 422.911 122.76 423.671 123.38L422.561 125.93C421.041 124.81 419.481 124.25 417.881 124.25C417.021 124.25 416.351 124.41 415.871 124.73C415.391 125.05 415.151 125.49 415.151 126.05C415.151 126.49 415.291 126.84 415.571 127.1C415.871 127.36 416.371 127.58 417.071 127.76L419.651 128.33C421.151 128.67 422.241 129.2 422.921 129.92C423.621 130.62 423.971 131.54 423.971 132.68C423.971 134.08 423.411 135.19 422.291 136.01C421.171 136.83 419.641 137.24 417.701 137.24ZM432.731 137.24C429.991 137.24 427.811 136.6 426.191 135.32L427.241 132.68C428.861 133.88 430.711 134.48 432.791 134.48C433.691 134.48 434.381 134.33 434.861 134.03C435.361 133.73 435.611 133.31 435.611 132.77C435.611 132.31 435.441 131.95 435.101 131.69C434.761 131.41 434.181 131.17 433.361 130.97L430.841 130.4C428.081 129.8 426.701 128.39 426.701 126.17C426.701 125.25 426.961 124.44 427.481 123.74C428.001 123.02 428.731 122.46 429.671 122.06C430.611 121.66 431.701 121.46 432.941 121.46C434.021 121.46 435.061 121.63 436.061 121.97C437.061 122.29 437.941 122.76 438.701 123.38L437.591 125.93C436.071 124.81 434.511 124.25 432.911 124.25C432.051 124.25 431.381 124.41 430.901 124.73C430.421 125.05 430.181 125.49 430.181 126.05C430.181 126.49 430.321 126.84 430.601 127.1C430.901 127.36 431.401 127.58 432.101 127.76L434.681 128.33C436.181 128.67 437.271 129.2 437.951 129.92C438.651 130.62 439.001 131.54 439.001 132.68C439.001 134.08 438.441 135.19 437.321 136.01C436.201 136.83 434.671 137.24 432.731 137.24Z" fill="black"/>
<path d="M393.277 785.64V807H391.357L378.457 789.81V807H376.147V785.64H378.037L390.937 802.83V785.64H393.277ZM404.469 807.21C403.049 807.21 401.799 806.89 400.719 806.25C399.639 805.61 398.799 804.7 398.199 803.52C397.619 802.34 397.329 800.96 397.329 799.38C397.329 797.8 397.619 796.42 398.199 795.24C398.799 794.06 399.639 793.15 400.719 792.51C401.799 791.87 403.049 791.55 404.469 791.55C405.889 791.55 407.139 791.87 408.219 792.51C409.299 793.15 410.129 794.06 410.709 795.24C411.309 796.42 411.609 797.8 411.609 799.38C411.609 800.96 411.309 802.34 410.709 803.52C410.129 804.7 409.299 805.61 408.219 806.25C407.139 806.89 405.889 807.21 404.469 807.21ZM404.469 805.2C405.969 805.2 407.119 804.71 407.919 803.73C408.719 802.73 409.119 801.28 409.119 799.38C409.119 797.54 408.709 796.12 407.889 795.12C407.069 794.1 405.929 793.59 404.469 793.59C402.989 793.59 401.839 794.1 401.019 795.12C400.199 796.12 399.789 797.54 399.789 799.38C399.789 801.28 400.189 802.73 400.989 803.73C401.809 804.71 402.969 805.2 404.469 805.2Z" fill="black"/>
<path d="M631.827 798.36V807H629.367V798.33L620.967 785.64H623.847L630.627 796.14L637.407 785.64H640.227L631.827 798.36ZM652.385 799.38H641.315C641.335 801.3 641.775 802.75 642.635 803.73C643.515 804.71 644.785 805.2 646.445 805.2C648.205 805.2 649.825 804.61 651.305 803.43L652.115 805.2C651.455 805.82 650.605 806.31 649.565 806.67C648.545 807.03 647.495 807.21 646.415 807.21C644.055 807.21 642.205 806.52 640.865 805.14C639.525 803.74 638.855 801.83 638.855 799.41C638.855 797.87 639.155 796.51 639.755 795.33C640.355 794.13 641.195 793.2 642.275 792.54C643.355 791.88 644.585 791.55 645.965 791.55C647.965 791.55 649.535 792.21 650.675 793.53C651.815 794.83 652.385 796.63 652.385 798.93V799.38ZM645.995 793.44C644.735 793.44 643.705 793.82 642.905 794.58C642.125 795.34 641.625 796.41 641.405 797.79H650.195C650.075 796.37 649.655 795.29 648.935 794.55C648.235 793.81 647.255 793.44 645.995 793.44ZM661.173 807.21C658.633 807.21 656.623 806.56 655.143 805.26L655.953 803.46C656.773 804.1 657.603 804.56 658.443 804.84C659.283 805.12 660.223 805.26 661.263 805.26C662.403 805.26 663.263 805.07 663.843 804.69C664.443 804.29 664.743 803.72 664.743 802.98C664.743 802.38 664.543 801.9 664.143 801.54C663.743 801.18 663.083 800.9 662.163 800.7L659.613 800.1C658.353 799.82 657.373 799.32 656.673 798.6C655.993 797.88 655.653 797.02 655.653 796.02C655.653 794.7 656.183 793.63 657.243 792.81C658.303 791.97 659.703 791.55 661.443 791.55C662.503 791.55 663.503 791.72 664.443 792.06C665.383 792.4 666.173 792.89 666.813 793.53L666.003 795.3C664.583 794.12 663.063 793.53 661.443 793.53C660.363 793.53 659.523 793.74 658.923 794.16C658.343 794.56 658.053 795.13 658.053 795.87C658.053 796.49 658.233 796.98 658.593 797.34C658.973 797.7 659.573 797.98 660.393 798.18L662.943 798.81C664.343 799.13 665.383 799.63 666.063 800.31C666.743 800.97 667.083 801.84 667.083 802.92C667.083 804.22 666.553 805.26 665.493 806.04C664.433 806.82 662.993 807.21 661.173 807.21Z" fill="black"/>
<path d="M908.147 785.64H916.667C918.867 785.64 920.577 786.17 921.797 787.23C923.037 788.29 923.657 789.75 923.657 791.61C923.657 793.47 923.037 794.94 921.797 796.02C920.557 797.08 918.847 797.61 916.667 797.61H910.607V807H908.147V785.64ZM916.457 795.57C918.037 795.57 919.227 795.23 920.027 794.55C920.827 793.87 921.227 792.89 921.227 791.61C921.227 790.33 920.827 789.36 920.027 788.7C919.227 788.02 918.037 787.68 916.457 787.68H910.607V795.57H916.457ZM940.209 791.91V807H937.809V804.27C937.369 805.21 936.699 805.94 935.799 806.46C934.919 806.96 933.889 807.21 932.709 807.21C931.369 807.21 930.189 806.89 929.169 806.25C928.169 805.61 927.389 804.71 926.829 803.55C926.289 802.37 926.019 801 926.019 799.44C926.019 797.88 926.299 796.51 926.859 795.33C927.419 794.13 928.199 793.2 929.199 792.54C930.219 791.88 931.389 791.55 932.709 791.55C933.889 791.55 934.919 791.81 935.799 792.33C936.679 792.85 937.349 793.58 937.809 794.52V791.91H940.209ZM933.189 805.2C934.669 805.2 935.809 804.7 936.609 803.7C937.409 802.68 937.809 801.24 937.809 799.38C937.809 797.52 937.409 796.09 936.609 795.09C935.809 794.09 934.669 793.59 933.189 793.59C931.709 793.59 930.549 794.11 929.709 795.15C928.889 796.17 928.479 797.6 928.479 799.44C928.479 801.28 928.889 802.7 929.709 803.7C930.529 804.7 931.689 805.2 933.189 805.2ZM951.927 791.55C952.427 791.55 952.887 791.61 953.307 791.73L953.247 793.95C952.787 793.79 952.257 793.71 951.657 793.71C950.197 793.71 949.107 794.17 948.387 795.09C947.687 795.99 947.337 797.09 947.337 798.39V807H944.907V796.14C944.907 794.58 944.827 793.17 944.667 791.91H946.977L947.217 794.7C947.597 793.68 948.207 792.9 949.047 792.36C949.887 791.82 950.847 791.55 951.927 791.55ZM960.188 793.83V802.08C960.188 803.2 960.418 803.99 960.878 804.45C961.338 804.89 961.988 805.11 962.828 805.11C963.388 805.11 963.928 805.02 964.448 804.84V806.91C963.828 807.11 963.128 807.21 962.348 807.21C960.908 807.21 959.778 806.81 958.958 806.01C958.158 805.19 957.758 803.99 957.758 802.41V793.83H954.818V791.91H957.758V788.04L960.188 787.17V791.91H964.508V793.83H960.188ZM967.436 791.91H969.866V807H967.436V791.91ZM970.166 785.52V788.28H967.196V785.52H970.166ZM987.875 791.91V807H985.475V804.27C985.035 805.21 984.365 805.94 983.465 806.46C982.585 806.96 981.555 807.21 980.375 807.21C979.035 807.21 977.855 806.89 976.835 806.25C975.835 805.61 975.055 804.71 974.495 803.55C973.955 802.37 973.685 801 973.685 799.44C973.685 797.88 973.965 796.51 974.525 795.33C975.085 794.13 975.865 793.2 976.865 792.54C977.885 791.88 979.055 791.55 980.375 791.55C981.555 791.55 982.585 791.81 983.465 792.33C984.345 792.85 985.015 793.58 985.475 794.52V791.91H987.875ZM980.855 805.2C982.335 805.2 983.475 804.7 984.275 803.7C985.075 802.68 985.475 801.24 985.475 799.38C985.475 797.52 985.075 796.09 984.275 795.09C983.475 794.09 982.335 793.59 980.855 793.59C979.375 793.59 978.215 794.11 977.375 795.15C976.555 796.17 976.145 797.6 976.145 799.44C976.145 801.28 976.555 802.7 977.375 803.7C978.195 804.7 979.355 805.2 980.855 805.2ZM992.573 784.92H995.003V807H992.573V784.92ZM999.722 784.92H1002.15V807H999.722V784.92ZM1020.13 791.91L1013.08 808.38C1012.34 810.1 1011.41 811.36 1010.29 812.16C1009.17 812.96 1007.79 813.51 1006.15 813.81L1005.64 811.92C1007.06 811.6 1008.13 811.17 1008.85 810.63C1009.59 810.11 1010.2 809.3 1010.68 808.2L1011.28 806.85L1004.89 791.91H1007.44L1012.54 804.36L1017.7 791.91H1020.13Z" fill="black"/>
<path d="M525.31 73.64H533.17C536.67 73.64 539.38 74.57 541.3 76.43C543.24 78.29 544.21 80.91 544.21 84.29C544.21 87.69 543.24 90.33 541.3 92.21C539.38 94.07 536.67 95 533.17 95H525.31V73.64ZM532.93 91.85C537.85 91.85 540.31 89.33 540.31 84.29C540.31 79.29 537.85 76.79 532.93 76.79H529.18V91.85H532.93ZM547.892 79.85H551.612V95H547.892V79.85ZM551.822 72.98V76.67H547.652V72.98H551.822ZM562.884 75.89C561.264 75.89 560.454 76.78 560.454 78.56V79.85H563.844V82.67H560.454V95H556.704V82.67H553.824V79.85H556.704V78.38C556.704 76.58 557.154 75.2 558.054 74.24C558.974 73.26 560.284 72.77 561.984 72.77C562.924 72.77 563.714 72.89 564.354 73.13V76.1C563.794 75.96 563.304 75.89 562.884 75.89ZM573.636 75.89C572.016 75.89 571.206 76.78 571.206 78.56V79.85H574.596V82.67H571.206V95H567.456V82.67H564.576V79.85H567.456V78.38C567.456 76.58 567.906 75.2 568.806 74.24C569.726 73.26 571.036 72.77 572.736 72.77C573.676 72.77 574.466 72.89 575.106 73.13V76.1C574.546 75.96 574.056 75.89 573.636 75.89ZM590.595 87.62H580.155C580.235 89.24 580.635 90.44 581.355 91.22C582.095 91.98 583.185 92.36 584.625 92.36C586.285 92.36 587.825 91.82 589.245 90.74L590.325 93.32C589.605 93.9 588.715 94.37 587.655 94.73C586.615 95.07 585.555 95.24 584.475 95.24C581.995 95.24 580.045 94.54 578.625 93.14C577.205 91.74 576.495 89.82 576.495 87.38C576.495 85.84 576.805 84.47 577.425 83.27C578.045 82.07 578.915 81.14 580.035 80.48C581.155 79.8 582.425 79.46 583.845 79.46C585.925 79.46 587.565 80.14 588.765 81.5C589.985 82.84 590.595 84.69 590.595 87.05V87.62ZM583.935 82.16C582.935 82.16 582.115 82.46 581.475 83.06C580.855 83.64 580.455 84.49 580.275 85.61H587.325C587.205 84.47 586.855 83.61 586.275 83.03C585.715 82.45 584.935 82.16 583.935 82.16ZM601.93 79.49C602.51 79.49 603.01 79.57 603.43 79.73L603.4 83.15C602.76 82.89 602.1 82.76 601.42 82.76C600.14 82.76 599.16 83.13 598.48 83.87C597.82 84.61 597.49 85.59 597.49 86.81V95H593.77V84.14C593.77 82.54 593.69 81.11 593.53 79.85H597.04L597.34 82.52C597.72 81.54 598.32 80.79 599.14 80.27C599.96 79.75 600.89 79.49 601.93 79.49ZM618.486 87.62H608.046C608.126 89.24 608.526 90.44 609.246 91.22C609.986 91.98 611.076 92.36 612.516 92.36C614.176 92.36 615.716 91.82 617.136 90.74L618.216 93.32C617.496 93.9 616.606 94.37 615.546 94.73C614.506 95.07 613.446 95.24 612.366 95.24C609.886 95.24 607.936 94.54 606.516 93.14C605.096 91.74 604.386 89.82 604.386 87.38C604.386 85.84 604.696 84.47 605.316 83.27C605.936 82.07 606.806 81.14 607.926 80.48C609.046 79.8 610.316 79.46 611.736 79.46C613.816 79.46 615.456 80.14 616.656 81.5C617.876 82.84 618.486 84.69 618.486 87.05V87.62ZM611.826 82.16C610.826 82.16 610.006 82.46 609.366 83.06C608.746 83.64 608.346 84.49 608.166 85.61H615.216C615.096 84.47 614.746 83.61 614.166 83.03C613.606 82.45 612.826 82.16 611.826 82.16ZM630.331 79.46C633.951 79.46 635.761 81.54 635.761 85.7V95H632.011V85.88C632.011 84.68 631.781 83.81 631.321 83.27C630.861 82.71 630.151 82.43 629.191 82.43C628.051 82.43 627.131 82.8 626.431 83.54C625.731 84.26 625.381 85.22 625.381 86.42V95H621.661V84.14C621.661 82.54 621.581 81.11 621.421 79.85H624.931L625.201 82.34C625.721 81.42 626.421 80.71 627.301 80.21C628.201 79.71 629.211 79.46 630.331 79.46ZM644.507 82.67V89.45C644.507 91.23 645.337 92.12 646.997 92.12C647.457 92.12 647.957 92.04 648.497 91.88V94.85C647.837 95.09 647.037 95.21 646.097 95.21C644.377 95.21 643.057 94.73 642.137 93.77C641.217 92.81 640.757 91.43 640.757 89.63V82.67H637.847V79.85H640.757V76.16L644.507 74.9V79.85H648.527V82.67H644.507ZM525.31 114.64H529.18V132.82H539.17V136H525.31V114.64ZM554.999 128.62H544.559C544.639 130.24 545.039 131.44 545.759 132.22C546.499 132.98 547.589 133.36 549.029 133.36C550.689 133.36 552.229 132.82 553.649 131.74L554.729 134.32C554.009 134.9 553.119 135.37 552.059 135.73C551.019 136.07 549.959 136.24 548.879 136.24C546.399 136.24 544.449 135.54 543.029 134.14C541.609 132.74 540.899 130.82 540.899 128.38C540.899 126.84 541.209 125.47 541.829 124.27C542.449 123.07 543.319 122.14 544.439 121.48C545.559 120.8 546.829 120.46 548.249 120.46C550.329 120.46 551.969 121.14 553.169 122.5C554.389 123.84 554.999 125.69 554.999 128.05V128.62ZM548.339 123.16C547.339 123.16 546.519 123.46 545.879 124.06C545.259 124.64 544.859 125.49 544.679 126.61H551.729C551.609 125.47 551.259 124.61 550.679 124.03C550.119 123.45 549.339 123.16 548.339 123.16ZM572.665 120.85V136H568.975V133.57C568.515 134.41 567.855 135.07 566.995 135.55C566.135 136.01 565.155 136.24 564.055 136.24C562.735 136.24 561.565 135.92 560.545 135.28C559.525 134.64 558.735 133.73 558.175 132.55C557.615 131.37 557.335 130 557.335 128.44C557.335 126.88 557.615 125.5 558.175 124.3C558.755 123.08 559.555 122.14 560.575 121.48C561.595 120.8 562.755 120.46 564.055 120.46C565.155 120.46 566.135 120.7 566.995 121.18C567.855 121.64 568.515 122.29 568.975 123.13V120.85H572.665ZM565.075 133.3C566.315 133.3 567.275 132.87 567.955 132.01C568.635 131.15 568.975 129.94 568.975 128.38C568.975 126.78 568.635 125.55 567.955 124.69C567.275 123.83 566.305 123.4 565.045 123.4C563.805 123.4 562.835 123.85 562.135 124.75C561.455 125.63 561.115 126.86 561.115 128.44C561.115 130 561.455 131.2 562.135 132.04C562.835 132.88 563.815 133.3 565.075 133.3ZM584.909 120.49C585.489 120.49 585.989 120.57 586.409 120.73L586.379 124.15C585.739 123.89 585.079 123.76 584.399 123.76C583.119 123.76 582.139 124.13 581.459 124.87C580.799 125.61 580.469 126.59 580.469 127.81V136H576.749V125.14C576.749 123.54 576.669 122.11 576.509 120.85H580.019L580.319 123.52C580.699 122.54 581.299 121.79 582.119 121.27C582.939 120.75 583.869 120.49 584.909 120.49ZM597.167 120.46C600.787 120.46 602.597 122.54 602.597 126.7V136H598.847V126.88C598.847 125.68 598.617 124.81 598.157 124.27C597.697 123.71 596.987 123.43 596.027 123.43C594.887 123.43 593.967 123.8 593.267 124.54C592.567 125.26 592.217 126.22 592.217 127.42V136H588.497V125.14C588.497 123.54 588.417 122.11 588.257 120.85H591.767L592.037 123.34C592.557 122.42 593.257 121.71 594.137 121.21C595.037 120.71 596.047 120.46 597.167 120.46ZM606.573 120.85H610.293V136H606.573V120.85ZM610.503 113.98V117.67H606.333V113.98H610.503ZM623.065 120.46C626.685 120.46 628.495 122.54 628.495 126.7V136H624.745V126.88C624.745 125.68 624.515 124.81 624.055 124.27C623.595 123.71 622.885 123.43 621.925 123.43C620.785 123.43 619.865 123.8 619.165 124.54C618.465 125.26 618.115 126.22 618.115 127.42V136H614.395V125.14C614.395 123.54 614.315 122.11 614.155 120.85H617.665L617.935 123.34C618.455 122.42 619.155 121.71 620.035 121.21C620.935 120.71 621.945 120.46 623.065 120.46ZM647.112 120.85V135.52C647.112 137.88 646.462 139.67 645.162 140.89C643.862 142.11 641.952 142.72 639.432 142.72C637.092 142.72 635.032 142.23 633.252 141.25L633.852 138.4C635.692 139.36 637.522 139.84 639.342 139.84C642.042 139.84 643.392 138.5 643.392 135.82V132.82C642.932 133.64 642.262 134.31 641.382 134.83C640.502 135.33 639.512 135.58 638.412 135.58C637.092 135.58 635.912 135.27 634.872 134.65C633.852 134.01 633.052 133.12 632.472 131.98C631.912 130.82 631.632 129.5 631.632 128.02C631.632 126.54 631.912 125.23 632.472 124.09C633.052 122.93 633.852 122.04 634.872 121.42C635.912 120.78 637.092 120.46 638.412 120.46C639.532 120.46 640.522 120.7 641.382 121.18C642.262 121.64 642.932 122.29 643.392 123.13V120.85H647.112ZM639.402 132.64C640.642 132.64 641.612 132.23 642.312 131.41C643.032 130.59 643.392 129.46 643.392 128.02C643.392 126.58 643.042 125.45 642.342 124.63C641.642 123.81 640.662 123.4 639.402 123.4C638.162 123.4 637.182 123.81 636.462 124.63C635.762 125.45 635.412 126.58 635.412 128.02C635.412 129.46 635.762 130.59 636.462 131.41C637.182 132.23 638.162 132.64 639.402 132.64ZM669.145 136.27C667.085 136.27 665.285 135.83 663.745 134.95C662.225 134.05 661.045 132.78 660.205 131.14C659.385 129.48 658.975 127.53 658.975 125.29C658.975 123.07 659.385 121.14 660.205 119.5C661.025 117.84 662.195 116.57 663.715 115.69C665.255 114.81 667.065 114.37 669.145 114.37C671.225 114.37 673.025 114.81 674.545 115.69C676.085 116.57 677.255 117.84 678.055 119.5C678.875 121.14 679.285 123.07 679.285 125.29C679.285 127.53 678.875 129.48 678.055 131.14C677.235 132.78 676.065 134.05 674.545 134.95C673.025 135.83 671.225 136.27 669.145 136.27ZM669.145 133.18C671.125 133.18 672.665 132.5 673.765 131.14C674.865 129.78 675.415 127.83 675.415 125.29C675.415 122.77 674.865 120.84 673.765 119.5C672.665 118.14 671.125 117.46 669.145 117.46C667.165 117.46 665.625 118.13 664.525 119.47C663.425 120.81 662.875 122.75 662.875 125.29C662.875 127.83 663.425 129.78 664.525 131.14C665.625 132.5 667.165 133.18 669.145 133.18ZM691.619 120.46C692.919 120.46 694.069 120.8 695.069 121.48C696.089 122.14 696.879 123.08 697.439 124.3C698.019 125.5 698.309 126.88 698.309 128.44C698.309 130 698.029 131.37 697.469 132.55C696.909 133.73 696.119 134.64 695.099 135.28C694.099 135.92 692.939 136.24 691.619 136.24C690.519 136.24 689.539 136.01 688.679 135.55C687.819 135.07 687.159 134.41 686.699 133.57V142.48H682.979V125.14C682.979 123.54 682.899 122.11 682.739 120.85H686.249L686.549 123.46C686.949 122.52 687.599 121.79 688.499 121.27C689.399 120.73 690.439 120.46 691.619 120.46ZM690.599 133.3C691.859 133.3 692.829 132.88 693.509 132.04C694.189 131.2 694.529 130 694.529 128.44C694.529 126.86 694.189 125.63 693.509 124.75C692.829 123.85 691.869 123.4 690.629 123.4C689.349 123.4 688.369 123.83 687.689 124.69C687.009 125.55 686.669 126.78 686.669 128.38C686.669 129.96 687.009 131.18 687.689 132.04C688.369 132.88 689.339 133.3 690.599 133.3ZM706.265 123.67V130.45C706.265 132.23 707.095 133.12 708.755 133.12C709.215 133.12 709.715 133.04 710.255 132.88V135.85C709.595 136.09 708.795 136.21 707.855 136.21C706.135 136.21 704.815 135.73 703.895 134.77C702.975 133.81 702.515 132.43 702.515 130.63V123.67H699.605V120.85H702.515V117.16L706.265 115.9V120.85H710.285V123.67H706.265ZM712.862 120.85H716.582V136H712.862V120.85ZM716.792 113.98V117.67H712.622V113.98H716.792ZM727.555 136.24C726.015 136.24 724.655 135.92 723.475 135.28C722.315 134.64 721.415 133.73 720.775 132.55C720.155 131.35 719.845 129.95 719.845 128.35C719.845 126.75 720.155 125.36 720.775 124.18C721.415 122.98 722.315 122.06 723.475 121.42C724.655 120.78 726.015 120.46 727.555 120.46C729.075 120.46 730.415 120.78 731.575 121.42C732.735 122.06 733.625 122.98 734.245 124.18C734.885 125.36 735.205 126.75 735.205 128.35C735.205 129.95 734.885 131.35 734.245 132.55C733.625 133.73 732.735 134.64 731.575 135.28C730.415 135.92 729.075 136.24 727.555 136.24ZM727.525 133.3C728.805 133.3 729.775 132.89 730.435 132.07C731.115 131.23 731.455 129.99 731.455 128.35C731.455 126.73 731.115 125.5 730.435 124.66C729.755 123.8 728.795 123.37 727.555 123.37C726.295 123.37 725.325 123.8 724.645 124.66C723.965 125.5 723.625 126.73 723.625 128.35C723.625 129.99 723.955 131.23 724.615 132.07C725.295 132.89 726.265 133.3 727.525 133.3ZM747.108 120.46C750.728 120.46 752.538 122.54 752.538 126.7V136H748.788V126.88C748.788 125.68 748.558 124.81 748.098 124.27C747.638 123.71 746.928 123.43 745.968 123.43C744.828 123.43 743.908 123.8 743.208 124.54C742.508 125.26 742.158 126.22 742.158 127.42V136H738.438V125.14C738.438 123.54 738.358 122.11 738.198 120.85H741.708L741.978 123.34C742.498 122.42 743.198 121.71 744.078 121.21C744.978 120.71 745.988 120.46 747.108 120.46Z" fill="black"/>
<path d="M820.31 73.64H828.17C831.67 73.64 834.38 74.57 836.3 76.43C838.24 78.29 839.21 80.91 839.21 84.29C839.21 87.69 838.24 90.33 836.3 92.21C834.38 94.07 831.67 95 828.17 95H820.31V73.64ZM827.93 91.85C832.85 91.85 835.31 89.33 835.31 84.29C835.31 79.29 832.85 76.79 827.93 76.79H824.18V91.85H827.93ZM842.892 79.85H846.612V95H842.892V79.85ZM846.822 72.98V76.67H842.652V72.98H846.822ZM865.054 79.88L858.424 95H855.154L848.614 79.88H852.544L856.894 90.74L861.334 79.88H865.054ZM879.999 87.62H869.559C869.639 89.24 870.039 90.44 870.759 91.22C871.499 91.98 872.589 92.36 874.029 92.36C875.689 92.36 877.229 91.82 878.649 90.74L879.729 93.32C879.009 93.9 878.119 94.37 877.059 94.73C876.019 95.07 874.959 95.24 873.879 95.24C871.399 95.24 869.449 94.54 868.029 93.14C866.609 91.74 865.899 89.82 865.899 87.38C865.899 85.84 866.209 84.47 866.829 83.27C867.449 82.07 868.319 81.14 869.439 80.48C870.559 79.8 871.829 79.46 873.249 79.46C875.329 79.46 876.969 80.14 878.169 81.5C879.389 82.84 879.999 84.69 879.999 87.05V87.62ZM873.339 82.16C872.339 82.16 871.519 82.46 870.879 83.06C870.259 83.64 869.859 84.49 869.679 85.61H876.729C876.609 84.47 876.259 83.61 875.679 83.03C875.119 82.45 874.339 82.16 873.339 82.16ZM891.335 79.49C891.915 79.49 892.415 79.57 892.835 79.73L892.805 83.15C892.165 82.89 891.505 82.76 890.825 82.76C889.545 82.76 888.565 83.13 887.885 83.87C887.225 84.61 886.895 85.59 886.895 86.81V95H883.175V84.14C883.175 82.54 883.095 81.11 882.935 79.85H886.445L886.745 82.52C887.125 81.54 887.725 80.79 888.545 80.27C889.365 79.75 890.295 79.49 891.335 79.49ZM900.326 95.24C897.586 95.24 895.406 94.6 893.786 93.32L894.836 90.68C896.456 91.88 898.306 92.48 900.386 92.48C901.286 92.48 901.976 92.33 902.456 92.03C902.956 91.73 903.206 91.31 903.206 90.77C903.206 90.31 903.036 89.95 902.696 89.69C902.356 89.41 901.776 89.17 900.956 88.97L898.436 88.4C895.676 87.8 894.296 86.39 894.296 84.17C894.296 83.25 894.556 82.44 895.076 81.74C895.596 81.02 896.326 80.46 897.266 80.06C898.206 79.66 899.296 79.46 900.536 79.46C901.616 79.46 902.656 79.63 903.656 79.97C904.656 80.29 905.536 80.76 906.296 81.38L905.186 83.93C903.666 82.81 902.106 82.25 900.506 82.25C899.646 82.25 898.976 82.41 898.496 82.73C898.016 83.05 897.776 83.49 897.776 84.05C897.776 84.49 897.916 84.84 898.196 85.1C898.496 85.36 898.996 85.58 899.696 85.76L902.276 86.33C903.776 86.67 904.866 87.2 905.546 87.92C906.246 88.62 906.596 89.54 906.596 90.68C906.596 92.08 906.036 93.19 904.916 94.01C903.796 94.83 902.266 95.24 900.326 95.24ZM923.066 87.62H912.626C912.706 89.24 913.106 90.44 913.826 91.22C914.566 91.98 915.656 92.36 917.096 92.36C918.756 92.36 920.296 91.82 921.716 90.74L922.796 93.32C922.076 93.9 921.186 94.37 920.126 94.73C919.086 95.07 918.026 95.24 916.946 95.24C914.466 95.24 912.516 94.54 911.096 93.14C909.676 91.74 908.966 89.82 908.966 87.38C908.966 85.84 909.276 84.47 909.896 83.27C910.516 82.07 911.386 81.14 912.506 80.48C913.626 79.8 914.896 79.46 916.316 79.46C918.396 79.46 920.036 80.14 921.236 81.5C922.456 82.84 923.066 84.69 923.066 87.05V87.62ZM916.406 82.16C915.406 82.16 914.586 82.46 913.946 83.06C913.326 83.64 912.926 84.49 912.746 85.61H919.796C919.676 84.47 919.326 83.61 918.746 83.03C918.186 82.45 917.406 82.16 916.406 82.16ZM820.31 114.64H824.18V132.82H834.17V136H820.31V114.64ZM849.999 128.62H839.559C839.639 130.24 840.039 131.44 840.759 132.22C841.499 132.98 842.589 133.36 844.029 133.36C845.689 133.36 847.229 132.82 848.649 131.74L849.729 134.32C849.009 134.9 848.119 135.37 847.059 135.73C846.019 136.07 844.959 136.24 843.879 136.24C841.399 136.24 839.449 135.54 838.029 134.14C836.609 132.74 835.899 130.82 835.899 128.38C835.899 126.84 836.209 125.47 836.829 124.27C837.449 123.07 838.319 122.14 839.439 121.48C840.559 120.8 841.829 120.46 843.249 120.46C845.329 120.46 846.969 121.14 848.169 122.5C849.389 123.84 849.999 125.69 849.999 128.05V128.62ZM843.339 123.16C842.339 123.16 841.519 123.46 840.879 124.06C840.259 124.64 839.859 125.49 839.679 126.61H846.729C846.609 125.47 846.259 124.61 845.679 124.03C845.119 123.45 844.339 123.16 843.339 123.16ZM867.665 120.85V136H863.975V133.57C863.515 134.41 862.855 135.07 861.995 135.55C861.135 136.01 860.155 136.24 859.055 136.24C857.735 136.24 856.565 135.92 855.545 135.28C854.525 134.64 853.735 133.73 853.175 132.55C852.615 131.37 852.335 130 852.335 128.44C852.335 126.88 852.615 125.5 853.175 124.3C853.755 123.08 854.555 122.14 855.575 121.48C856.595 120.8 857.755 120.46 859.055 120.46C860.155 120.46 861.135 120.7 861.995 121.18C862.855 121.64 863.515 122.29 863.975 123.13V120.85H867.665ZM860.075 133.3C861.315 133.3 862.275 132.87 862.955 132.01C863.635 131.15 863.975 129.94 863.975 128.38C863.975 126.78 863.635 125.55 862.955 124.69C862.275 123.83 861.305 123.4 860.045 123.4C858.805 123.4 857.835 123.85 857.135 124.75C856.455 125.63 856.115 126.86 856.115 128.44C856.115 130 856.455 131.2 857.135 132.04C857.835 132.88 858.815 133.3 860.075 133.3ZM879.909 120.49C880.489 120.49 880.989 120.57 881.409 120.73L881.379 124.15C880.739 123.89 880.079 123.76 879.399 123.76C878.119 123.76 877.139 124.13 876.459 124.87C875.799 125.61 875.469 126.59 875.469 127.81V136H871.749V125.14C871.749 123.54 871.669 122.11 871.509 120.85H875.019L875.319 123.52C875.699 122.54 876.299 121.79 877.119 121.27C877.939 120.75 878.869 120.49 879.909 120.49ZM892.167 120.46C895.787 120.46 897.597 122.54 897.597 126.7V136H893.847V126.88C893.847 125.68 893.617 124.81 893.157 124.27C892.697 123.71 891.987 123.43 891.027 123.43C889.887 123.43 888.967 123.8 888.267 124.54C887.567 125.26 887.217 126.22 887.217 127.42V136H883.497V125.14C883.497 123.54 883.417 122.11 883.257 120.85H886.767L887.037 123.34C887.557 122.42 888.257 121.71 889.137 121.21C890.037 120.71 891.047 120.46 892.167 120.46ZM901.573 120.85H905.293V136H901.573V120.85ZM905.503 113.98V117.67H901.333V113.98H905.503ZM918.065 120.46C921.685 120.46 923.495 122.54 923.495 126.7V136H919.745V126.88C919.745 125.68 919.515 124.81 919.055 124.27C918.595 123.71 917.885 123.43 916.925 123.43C915.785 123.43 914.865 123.8 914.165 124.54C913.465 125.26 913.115 126.22 913.115 127.42V136H909.395V125.14C909.395 123.54 909.315 122.11 909.155 120.85H912.665L912.935 123.34C913.455 122.42 914.155 121.71 915.035 121.21C915.935 120.71 916.945 120.46 918.065 120.46ZM942.112 120.85V135.52C942.112 137.88 941.462 139.67 940.162 140.89C938.862 142.11 936.952 142.72 934.432 142.72C932.092 142.72 930.032 142.23 928.252 141.25L928.852 138.4C930.692 139.36 932.522 139.84 934.342 139.84C937.042 139.84 938.392 138.5 938.392 135.82V132.82C937.932 133.64 937.262 134.31 936.382 134.83C935.502 135.33 934.512 135.58 933.412 135.58C932.092 135.58 930.912 135.27 929.872 134.65C928.852 134.01 928.052 133.12 927.472 131.98C926.912 130.82 926.632 129.5 926.632 128.02C926.632 126.54 926.912 125.23 927.472 124.09C928.052 122.93 928.852 122.04 929.872 121.42C930.912 120.78 932.092 120.46 933.412 120.46C934.532 120.46 935.522 120.7 936.382 121.18C937.262 121.64 937.932 122.29 938.392 123.13V120.85H942.112ZM934.402 132.64C935.642 132.64 936.612 132.23 937.312 131.41C938.032 130.59 938.392 129.46 938.392 128.02C938.392 126.58 938.042 125.45 937.342 124.63C936.642 123.81 935.662 123.4 934.402 123.4C933.162 123.4 932.182 123.81 931.462 124.63C930.762 125.45 930.412 126.58 930.412 128.02C930.412 129.46 930.762 130.59 931.462 131.41C932.182 132.23 933.162 132.64 934.402 132.64Z" fill="black"/>
<path d="M1035.31 76.64H1043.17C1046.67 76.64 1049.38 77.57 1051.3 79.43C1053.24 81.29 1054.21 83.91 1054.21 87.29C1054.21 90.69 1053.24 93.33 1051.3 95.21C1049.38 97.07 1046.67 98 1043.17 98H1035.31V76.64ZM1042.93 94.85C1047.85 94.85 1050.31 92.33 1050.31 87.29C1050.31 82.29 1047.85 79.79 1042.93 79.79H1039.18V94.85H1042.93ZM1057.89 82.85H1061.61V98H1057.89V82.85ZM1061.82 75.98V79.67H1057.65V75.98H1061.82ZM1071.26 98.24C1068.52 98.24 1066.34 97.6 1064.72 96.32L1065.77 93.68C1067.39 94.88 1069.24 95.48 1071.32 95.48C1072.22 95.48 1072.91 95.33 1073.39 95.03C1073.89 94.73 1074.14 94.31 1074.14 93.77C1074.14 93.31 1073.97 92.95 1073.63 92.69C1073.29 92.41 1072.71 92.17 1071.89 91.97L1069.37 91.4C1066.61 90.8 1065.23 89.39 1065.23 87.17C1065.23 86.25 1065.49 85.44 1066.01 84.74C1066.53 84.02 1067.26 83.46 1068.2 83.06C1069.14 82.66 1070.23 82.46 1071.47 82.46C1072.55 82.46 1073.59 82.63 1074.59 82.97C1075.59 83.29 1076.47 83.76 1077.23 84.38L1076.12 86.93C1074.6 85.81 1073.04 85.25 1071.44 85.25C1070.58 85.25 1069.91 85.41 1069.43 85.73C1068.95 86.05 1068.71 86.49 1068.71 87.05C1068.71 87.49 1068.85 87.84 1069.13 88.1C1069.43 88.36 1069.93 88.58 1070.63 88.76L1073.21 89.33C1074.71 89.67 1075.8 90.2 1076.48 90.92C1077.18 91.62 1077.53 92.54 1077.53 93.68C1077.53 95.08 1076.97 96.19 1075.85 97.01C1074.73 97.83 1073.2 98.24 1071.26 98.24ZM1085.37 85.67V92.45C1085.37 94.23 1086.2 95.12 1087.86 95.12C1088.32 95.12 1088.82 95.04 1089.36 94.88V97.85C1088.7 98.09 1087.9 98.21 1086.96 98.21C1085.24 98.21 1083.92 97.73 1083 96.77C1082.08 95.81 1081.62 94.43 1081.62 92.63V85.67H1078.71V82.85H1081.62V79.16L1085.37 77.9V82.85H1089.39V85.67H1085.37ZM1100.12 82.49C1100.7 82.49 1101.2 82.57 1101.62 82.73L1101.59 86.15C1100.95 85.89 1100.29 85.76 1099.61 85.76C1098.33 85.76 1097.35 86.13 1096.67 86.87C1096.01 87.61 1095.68 88.59 1095.68 89.81V98H1091.96V87.14C1091.96 85.54 1091.88 84.11 1091.72 82.85H1095.23L1095.53 85.52C1095.91 84.54 1096.51 83.79 1097.33 83.27C1098.15 82.75 1099.08 82.49 1100.12 82.49ZM1117.91 82.85V98H1114.22V95.57C1113.76 96.41 1113.1 97.07 1112.24 97.55C1111.38 98.01 1110.4 98.24 1109.3 98.24C1107.98 98.24 1106.81 97.92 1105.79 97.28C1104.77 96.64 1103.98 95.73 1103.42 94.55C1102.86 93.37 1102.58 92 1102.58 90.44C1102.58 88.88 1102.86 87.5 1103.42 86.3C1104 85.08 1104.8 84.14 1105.82 83.48C1106.84 82.8 1108 82.46 1109.3 82.46C1110.4 82.46 1111.38 82.7 1112.24 83.18C1113.1 83.64 1113.76 84.29 1114.22 85.13V82.85H1117.91ZM1110.32 95.3C1111.56 95.3 1112.52 94.87 1113.2 94.01C1113.88 93.15 1114.22 91.94 1114.22 90.38C1114.22 88.78 1113.88 87.55 1113.2 86.69C1112.52 85.83 1111.55 85.4 1110.29 85.4C1109.05 85.4 1108.08 85.85 1107.38 86.75C1106.7 87.63 1106.36 88.86 1106.36 90.44C1106.36 92 1106.7 93.2 1107.38 94.04C1108.08 94.88 1109.06 95.3 1110.32 95.3ZM1128.86 98.24C1127.28 98.24 1125.91 97.92 1124.75 97.28C1123.59 96.64 1122.7 95.74 1122.08 94.58C1121.46 93.4 1121.15 92.02 1121.15 90.44C1121.15 88.86 1121.47 87.47 1122.11 86.27C1122.77 85.07 1123.69 84.14 1124.87 83.48C1126.07 82.8 1127.45 82.46 1129.01 82.46C1130.09 82.46 1131.13 82.63 1132.13 82.97C1133.15 83.31 1133.96 83.78 1134.56 84.38L1133.51 87.02C1132.87 86.5 1132.19 86.11 1131.47 85.85C1130.75 85.57 1130.04 85.43 1129.34 85.43C1127.98 85.43 1126.92 85.86 1126.16 86.72C1125.4 87.56 1125.02 88.78 1125.02 90.38C1125.02 91.98 1125.39 93.2 1126.13 94.04C1126.89 94.88 1127.96 95.3 1129.34 95.3C1130.04 95.3 1130.75 95.16 1131.47 94.88C1132.19 94.6 1132.87 94.2 1133.51 93.68L1134.56 96.32C1133.92 96.92 1133.09 97.39 1132.07 97.73C1131.05 98.07 1129.98 98.24 1128.86 98.24ZM1141.94 85.67V92.45C1141.94 94.23 1142.77 95.12 1144.43 95.12C1144.89 95.12 1145.39 95.04 1145.93 94.88V97.85C1145.27 98.09 1144.47 98.21 1143.53 98.21C1141.81 98.21 1140.49 97.73 1139.57 96.77C1138.65 95.81 1138.19 94.43 1138.19 92.63V85.67H1135.28V82.85H1138.19V79.16L1141.94 77.9V82.85H1145.96V85.67H1141.94ZM1148.54 82.85H1152.26V98H1148.54V82.85ZM1152.47 75.98V79.67H1148.3V75.98H1152.47ZM1163.23 98.24C1161.69 98.24 1160.33 97.92 1159.15 97.28C1157.99 96.64 1157.09 95.73 1156.45 94.55C1155.83 93.35 1155.52 91.95 1155.52 90.35C1155.52 88.75 1155.83 87.36 1156.45 86.18C1157.09 84.98 1157.99 84.06 1159.15 83.42C1160.33 82.78 1161.69 82.46 1163.23 82.46C1164.75 82.46 1166.09 82.78 1167.25 83.42C1168.41 84.06 1169.3 84.98 1169.92 86.18C1170.56 87.36 1170.88 88.75 1170.88 90.35C1170.88 91.95 1170.56 93.35 1169.92 94.55C1169.3 95.73 1168.41 96.64 1167.25 97.28C1166.09 97.92 1164.75 98.24 1163.23 98.24ZM1163.2 95.3C1164.48 95.3 1165.45 94.89 1166.11 94.07C1166.79 93.23 1167.13 91.99 1167.13 90.35C1167.13 88.73 1166.79 87.5 1166.11 86.66C1165.43 85.8 1164.47 85.37 1163.23 85.37C1161.97 85.37 1161 85.8 1160.32 86.66C1159.64 87.5 1159.3 88.73 1159.3 90.35C1159.3 91.99 1159.63 93.23 1160.29 94.07C1160.97 94.89 1161.94 95.3 1163.2 95.3ZM1182.78 82.46C1186.4 82.46 1188.21 84.54 1188.21 88.7V98H1184.46V88.88C1184.46 87.68 1184.23 86.81 1183.77 86.27C1183.31 85.71 1182.6 85.43 1181.64 85.43C1180.5 85.43 1179.58 85.8 1178.88 86.54C1178.18 87.26 1177.83 88.22 1177.83 89.42V98H1174.11V87.14C1174.11 85.54 1174.03 84.11 1173.87 82.85H1177.38L1177.65 85.34C1178.17 84.42 1178.87 83.71 1179.75 83.21C1180.65 82.71 1181.66 82.46 1182.78 82.46ZM1197.74 98.24C1195 98.24 1192.82 97.6 1191.2 96.32L1192.25 93.68C1193.87 94.88 1195.72 95.48 1197.8 95.48C1198.7 95.48 1199.39 95.33 1199.87 95.03C1200.37 94.73 1200.62 94.31 1200.62 93.77C1200.62 93.31 1200.45 92.95 1200.11 92.69C1199.77 92.41 1199.19 92.17 1198.37 91.97L1195.85 91.4C1193.09 90.8 1191.71 89.39 1191.71 87.17C1191.71 86.25 1191.97 85.44 1192.49 84.74C1193.01 84.02 1193.74 83.46 1194.68 83.06C1195.62 82.66 1196.71 82.46 1197.95 82.46C1199.03 82.46 1200.07 82.63 1201.07 82.97C1202.07 83.29 1202.95 83.76 1203.71 84.38L1202.6 86.93C1201.08 85.81 1199.52 85.25 1197.92 85.25C1197.06 85.25 1196.39 85.41 1195.91 85.73C1195.43 86.05 1195.19 86.49 1195.19 87.05C1195.19 87.49 1195.33 87.84 1195.61 88.1C1195.91 88.36 1196.41 88.58 1197.11 88.76L1199.69 89.33C1201.19 89.67 1202.28 90.2 1202.96 90.92C1203.66 91.62 1204.01 92.54 1204.01 93.68C1204.01 95.08 1203.45 96.19 1202.33 97.01C1201.21 97.83 1199.68 98.24 1197.74 98.24ZM1039.78 144.46C1038.44 142.08 1037.48 139.83 1036.9 137.71C1036.34 135.59 1036.06 133.36 1036.06 131.02C1036.06 128.68 1036.35 126.44 1036.93 124.3C1037.51 122.14 1038.46 119.92 1039.78 117.64H1042.84C1041.74 120.3 1040.98 122.66 1040.56 124.72C1040.14 126.78 1039.93 128.88 1039.93 131.02C1039.93 133.14 1040.14 135.24 1040.56 137.32C1040.98 139.38 1041.72 141.76 1042.78 144.46H1039.78ZM1060.16 133.99H1049.72L1047.56 139H1043.66L1053.32 117.64H1056.47L1066.16 139H1062.29L1060.16 133.99ZM1058.87 130.99L1054.94 121.84L1051.01 130.99H1058.87ZM1082.69 116.92V139H1079V136.57C1078.54 137.41 1077.88 138.07 1077.02 138.55C1076.16 139.01 1075.18 139.24 1074.08 139.24C1072.78 139.24 1071.62 138.91 1070.6 138.25C1069.58 137.59 1068.78 136.66 1068.2 135.46C1067.64 134.24 1067.36 132.85 1067.36 131.29C1067.36 129.73 1067.64 128.36 1068.2 127.18C1068.76 126 1069.55 125.09 1070.57 124.45C1071.59 123.79 1072.76 123.46 1074.08 123.46C1075.16 123.46 1076.12 123.69 1076.96 124.15C1077.82 124.59 1078.48 125.22 1078.94 126.04V116.92H1082.69ZM1075.07 136.3C1076.31 136.3 1077.27 135.87 1077.95 135.01C1078.65 134.15 1079 132.93 1079 131.35C1079 129.77 1078.66 128.55 1077.98 127.69C1077.3 126.83 1076.34 126.4 1075.1 126.4C1073.84 126.4 1072.86 126.83 1072.16 127.69C1071.48 128.53 1071.14 129.73 1071.14 131.29C1071.14 132.87 1071.48 134.1 1072.16 134.98C1072.86 135.86 1073.83 136.3 1075.07 136.3ZM1092.33 139.24C1089.59 139.24 1087.41 138.6 1085.79 137.32L1086.84 134.68C1088.46 135.88 1090.31 136.48 1092.39 136.48C1093.29 136.48 1093.98 136.33 1094.46 136.03C1094.96 135.73 1095.21 135.31 1095.21 134.77C1095.21 134.31 1095.04 133.95 1094.7 133.69C1094.36 133.41 1093.78 133.17 1092.96 132.97L1090.44 132.4C1087.68 131.8 1086.3 130.39 1086.3 128.17C1086.3 127.25 1086.56 126.44 1087.08 125.74C1087.6 125.02 1088.33 124.46 1089.27 124.06C1090.21 123.66 1091.3 123.46 1092.54 123.46C1093.62 123.46 1094.66 123.63 1095.66 123.97C1096.66 124.29 1097.54 124.76 1098.3 125.38L1097.19 127.93C1095.67 126.81 1094.11 126.25 1092.51 126.25C1091.65 126.25 1090.98 126.41 1090.5 126.73C1090.02 127.05 1089.78 127.49 1089.78 128.05C1089.78 128.49 1089.92 128.84 1090.2 129.1C1090.5 129.36 1091 129.58 1091.7 129.76L1094.28 130.33C1095.78 130.67 1096.87 131.2 1097.55 131.92C1098.25 132.62 1098.6 133.54 1098.6 134.68C1098.6 136.08 1098.04 137.19 1096.92 138.01C1095.8 138.83 1094.27 139.24 1092.33 139.24ZM1100.64 144.46C1101.7 141.76 1102.44 139.38 1102.86 137.32C1103.28 135.24 1103.49 133.14 1103.49 131.02C1103.49 128.88 1103.28 126.78 1102.86 124.72C1102.44 122.66 1101.69 120.3 1100.61 117.64H1103.61C1104.93 119.92 1105.88 122.14 1106.46 124.3C1107.06 126.44 1107.36 128.68 1107.36 131.02C1107.36 133.34 1107.07 135.57 1106.49 137.71C1105.91 139.83 1104.96 142.08 1103.64 144.46H1100.64Z" fill="black"/>
<path d="M1282.31 75.64H1290.17C1293.67 75.64 1296.38 76.57 1298.3 78.43C1300.24 80.29 1301.21 82.91 1301.21 86.29C1301.21 89.69 1300.24 92.33 1298.3 94.21C1296.38 96.07 1293.67 97 1290.17 97H1282.31V75.64ZM1289.93 93.85C1294.85 93.85 1297.31 91.33 1297.31 86.29C1297.31 81.29 1294.85 78.79 1289.93 78.79H1286.18V93.85H1289.93ZM1311.76 97.24C1310.22 97.24 1308.86 96.92 1307.68 96.28C1306.52 95.64 1305.62 94.73 1304.98 93.55C1304.36 92.35 1304.05 90.95 1304.05 89.35C1304.05 87.75 1304.36 86.36 1304.98 85.18C1305.62 83.98 1306.52 83.06 1307.68 82.42C1308.86 81.78 1310.22 81.46 1311.76 81.46C1313.28 81.46 1314.62 81.78 1315.78 82.42C1316.94 83.06 1317.83 83.98 1318.45 85.18C1319.09 86.36 1319.41 87.75 1319.41 89.35C1319.41 90.95 1319.09 92.35 1318.45 93.55C1317.83 94.73 1316.94 95.64 1315.78 96.28C1314.62 96.92 1313.28 97.24 1311.76 97.24ZM1311.73 94.3C1313.01 94.3 1313.98 93.89 1314.64 93.07C1315.32 92.23 1315.66 90.99 1315.66 89.35C1315.66 87.73 1315.32 86.5 1314.64 85.66C1313.96 84.8 1313 84.37 1311.76 84.37C1310.5 84.37 1309.53 84.8 1308.85 85.66C1308.17 86.5 1307.83 87.73 1307.83 89.35C1307.83 90.99 1308.16 92.23 1308.82 93.07C1309.5 93.89 1310.47 94.3 1311.73 94.3ZM1336.45 81.85V97H1332.79V94.66C1332.31 95.5 1331.67 96.14 1330.87 96.58C1330.07 97.02 1329.15 97.24 1328.11 97.24C1324.41 97.24 1322.56 95.16 1322.56 91V81.85H1326.28V91.03C1326.28 92.13 1326.5 92.94 1326.94 93.46C1327.4 93.98 1328.1 94.24 1329.04 94.24C1330.14 94.24 1331.02 93.88 1331.68 93.16C1332.34 92.44 1332.67 91.48 1332.67 90.28V81.85H1336.45ZM1349.16 81.46C1350.48 81.46 1351.64 81.79 1352.64 82.45C1353.66 83.09 1354.45 84 1355.01 85.18C1355.57 86.36 1355.85 87.73 1355.85 89.29C1355.85 90.85 1355.56 92.24 1354.98 93.46C1354.42 94.66 1353.63 95.59 1352.61 96.25C1351.61 96.91 1350.46 97.24 1349.16 97.24C1348.04 97.24 1347.04 97 1346.16 96.52C1345.3 96.04 1344.65 95.37 1344.21 94.51V97H1340.52V74.92H1344.24V84.13C1344.7 83.29 1345.36 82.64 1346.22 82.18C1347.08 81.7 1348.06 81.46 1349.16 81.46ZM1348.17 94.3C1349.41 94.3 1350.37 93.86 1351.05 92.98C1351.73 92.1 1352.07 90.87 1352.07 89.29C1352.07 87.73 1351.73 86.53 1351.05 85.69C1350.37 84.83 1349.4 84.4 1348.14 84.4C1346.88 84.4 1345.91 84.83 1345.23 85.69C1344.55 86.55 1344.21 87.77 1344.21 89.35C1344.21 90.95 1344.55 92.18 1345.23 93.04C1345.91 93.88 1346.89 94.3 1348.17 94.3ZM1363.8 84.67V91.45C1363.8 93.23 1364.63 94.12 1366.29 94.12C1366.75 94.12 1367.25 94.04 1367.79 93.88V96.85C1367.13 97.09 1366.33 97.21 1365.39 97.21C1363.67 97.21 1362.35 96.73 1361.43 95.77C1360.51 94.81 1360.05 93.43 1360.05 91.63V84.67H1357.14V81.85H1360.05V78.16L1363.8 76.9V81.85H1367.82V84.67H1363.8ZM1289.54 138.27C1287.9 138.27 1286.36 138.05 1284.92 137.61C1283.5 137.17 1282.29 136.54 1281.29 135.72L1282.61 132.9C1283.65 133.68 1284.73 134.26 1285.85 134.64C1286.99 135 1288.23 135.18 1289.57 135.18C1291.05 135.18 1292.19 134.92 1292.99 134.4C1293.81 133.88 1294.22 133.15 1294.22 132.21C1294.22 131.41 1293.84 130.8 1293.08 130.38C1292.34 129.94 1291.11 129.53 1289.39 129.15C1286.71 128.57 1284.76 127.82 1283.54 126.9C1282.32 125.98 1281.71 124.64 1281.71 122.88C1281.71 121.62 1282.05 120.5 1282.73 119.52C1283.41 118.54 1284.37 117.77 1285.61 117.21C1286.87 116.65 1288.32 116.37 1289.96 116.37C1291.46 116.37 1292.88 116.6 1294.22 117.06C1295.58 117.5 1296.69 118.12 1297.55 118.92L1296.26 121.74C1294.36 120.22 1292.26 119.46 1289.96 119.46C1288.58 119.46 1287.49 119.75 1286.69 120.33C1285.89 120.89 1285.49 121.66 1285.49 122.64C1285.49 123.48 1285.84 124.12 1286.54 124.56C1287.26 125 1288.48 125.41 1290.2 125.79C1291.98 126.21 1293.43 126.67 1294.55 127.17C1295.67 127.65 1296.53 128.28 1297.13 129.06C1297.73 129.82 1298.03 130.78 1298.03 131.94C1298.03 133.22 1297.69 134.34 1297.01 135.3C1296.33 136.24 1295.35 136.97 1294.07 137.49C1292.79 138.01 1291.28 138.27 1289.54 138.27ZM1314.61 130.62H1304.17C1304.25 132.24 1304.65 133.44 1305.37 134.22C1306.11 134.98 1307.2 135.36 1308.64 135.36C1310.3 135.36 1311.84 134.82 1313.26 133.74L1314.34 136.32C1313.62 136.9 1312.73 137.37 1311.67 137.73C1310.63 138.07 1309.57 138.24 1308.49 138.24C1306.01 138.24 1304.06 137.54 1302.64 136.14C1301.22 134.74 1300.51 132.82 1300.51 130.38C1300.51 128.84 1300.82 127.47 1301.44 126.27C1302.06 125.07 1302.93 124.14 1304.05 123.48C1305.17 122.8 1306.44 122.46 1307.86 122.46C1309.94 122.46 1311.58 123.14 1312.78 124.5C1314 125.84 1314.61 127.69 1314.61 130.05V130.62ZM1307.95 125.16C1306.95 125.16 1306.13 125.46 1305.49 126.06C1304.87 126.64 1304.47 127.49 1304.29 128.61H1311.34C1311.22 127.47 1310.87 126.61 1310.29 126.03C1309.73 125.45 1308.95 125.16 1307.95 125.16ZM1323.33 138.24C1320.59 138.24 1318.41 137.6 1316.79 136.32L1317.84 133.68C1319.46 134.88 1321.31 135.48 1323.39 135.48C1324.29 135.48 1324.98 135.33 1325.46 135.03C1325.96 134.73 1326.21 134.31 1326.21 133.77C1326.21 133.31 1326.04 132.95 1325.7 132.69C1325.36 132.41 1324.78 132.17 1323.96 131.97L1321.44 131.4C1318.68 130.8 1317.3 129.39 1317.3 127.17C1317.3 126.25 1317.56 125.44 1318.08 124.74C1318.6 124.02 1319.33 123.46 1320.27 123.06C1321.21 122.66 1322.3 122.46 1323.54 122.46C1324.62 122.46 1325.66 122.63 1326.66 122.97C1327.66 123.29 1328.54 123.76 1329.3 124.38L1328.19 126.93C1326.67 125.81 1325.11 125.25 1323.51 125.25C1322.65 125.25 1321.98 125.41 1321.5 125.73C1321.02 126.05 1320.78 126.49 1320.78 127.05C1320.78 127.49 1320.92 127.84 1321.2 128.1C1321.5 128.36 1322 128.58 1322.7 128.76L1325.28 129.33C1326.78 129.67 1327.87 130.2 1328.55 130.92C1329.25 131.62 1329.6 132.54 1329.6 133.68C1329.6 135.08 1329.04 136.19 1327.92 137.01C1326.8 137.83 1325.27 138.24 1323.33 138.24ZM1338.36 138.24C1335.62 138.24 1333.44 137.6 1331.82 136.32L1332.87 133.68C1334.49 134.88 1336.34 135.48 1338.42 135.48C1339.32 135.48 1340.01 135.33 1340.49 135.03C1340.99 134.73 1341.24 134.31 1341.24 133.77C1341.24 133.31 1341.07 132.95 1340.73 132.69C1340.39 132.41 1339.81 132.17 1338.99 131.97L1336.47 131.4C1333.71 130.8 1332.33 129.39 1332.33 127.17C1332.33 126.25 1332.59 125.44 1333.11 124.74C1333.63 124.02 1334.36 123.46 1335.3 123.06C1336.24 122.66 1337.33 122.46 1338.57 122.46C1339.65 122.46 1340.69 122.63 1341.69 122.97C1342.69 123.29 1343.57 123.76 1344.33 124.38L1343.22 126.93C1341.7 125.81 1340.14 125.25 1338.54 125.25C1337.68 125.25 1337.01 125.41 1336.53 125.73C1336.05 126.05 1335.81 126.49 1335.81 127.05C1335.81 127.49 1335.95 127.84 1336.23 128.1C1336.53 128.36 1337.03 128.58 1337.73 128.76L1340.31 129.33C1341.81 129.67 1342.9 130.2 1343.58 130.92C1344.28 131.62 1344.63 132.54 1344.63 133.68C1344.63 135.08 1344.07 136.19 1342.95 137.01C1341.83 137.83 1340.3 138.24 1338.36 138.24ZM1347.84 122.85H1351.56V138H1347.84V122.85ZM1351.77 115.98V119.67H1347.6V115.98H1351.77ZM1362.53 138.24C1360.99 138.24 1359.63 137.92 1358.45 137.28C1357.29 136.64 1356.39 135.73 1355.75 134.55C1355.13 133.35 1354.82 131.95 1354.82 130.35C1354.82 128.75 1355.13 127.36 1355.75 126.18C1356.39 124.98 1357.29 124.06 1358.45 123.42C1359.63 122.78 1360.99 122.46 1362.53 122.46C1364.05 122.46 1365.39 122.78 1366.55 123.42C1367.71 124.06 1368.6 124.98 1369.22 126.18C1369.86 127.36 1370.18 128.75 1370.18 130.35C1370.18 131.95 1369.86 133.35 1369.22 134.55C1368.6 135.73 1367.71 136.64 1366.55 137.28C1365.39 137.92 1364.05 138.24 1362.53 138.24ZM1362.5 135.3C1363.78 135.3 1364.75 134.89 1365.41 134.07C1366.09 133.23 1366.43 131.99 1366.43 130.35C1366.43 128.73 1366.09 127.5 1365.41 126.66C1364.73 125.8 1363.77 125.37 1362.53 125.37C1361.27 125.37 1360.3 125.8 1359.62 126.66C1358.94 127.5 1358.6 128.73 1358.6 130.35C1358.6 131.99 1358.93 133.23 1359.59 134.07C1360.27 134.89 1361.24 135.3 1362.5 135.3ZM1382.09 122.46C1385.71 122.46 1387.52 124.54 1387.52 128.7V138H1383.77V128.88C1383.77 127.68 1383.54 126.81 1383.08 126.27C1382.62 125.71 1381.91 125.43 1380.95 125.43C1379.81 125.43 1378.89 125.8 1378.19 126.54C1377.49 127.26 1377.14 128.22 1377.14 129.42V138H1373.42V127.14C1373.42 125.54 1373.34 124.11 1373.18 122.85H1376.69L1376.96 125.34C1377.48 124.42 1378.18 123.71 1379.06 123.21C1379.96 122.71 1380.97 122.46 1382.09 122.46Z" fill="black"/>
<path d="M73 393.27C70.9 393.27 69.06 392.82 67.48 391.92C65.92 391.02 64.72 389.75 63.88 388.11C63.04 386.45 62.62 384.51 62.62 382.29C62.62 380.09 63.04 378.17 63.88 376.53C64.72 374.87 65.92 373.6 67.48 372.72C69.06 371.82 70.9 371.37 73 371.37C74.44 371.37 75.79 371.6 77.05 372.06C78.33 372.5 79.39 373.12 80.23 373.92L78.97 376.74C78.01 375.96 77.05 375.4 76.09 375.06C75.15 374.7 74.14 374.52 73.06 374.52C71 374.52 69.4 375.19 68.26 376.53C67.14 377.87 66.58 379.79 66.58 382.29C66.58 384.81 67.14 386.75 68.26 388.11C69.38 389.45 70.98 390.12 73.06 390.12C74.14 390.12 75.15 389.95 76.09 389.61C77.05 389.25 78.01 388.68 78.97 387.9L80.23 390.72C79.39 391.52 78.33 392.15 77.05 392.61C75.79 393.05 74.44 393.27 73 393.27ZM90.1541 393.24C88.6141 393.24 87.2541 392.92 86.0741 392.28C84.9141 391.64 84.0141 390.73 83.3741 389.55C82.7541 388.35 82.4441 386.95 82.4441 385.35C82.4441 383.75 82.7541 382.36 83.3741 381.18C84.0141 379.98 84.9141 379.06 86.0741 378.42C87.2541 377.78 88.6141 377.46 90.1541 377.46C91.6741 377.46 93.0141 377.78 94.1741 378.42C95.3341 379.06 96.2241 379.98 96.8441 381.18C97.4841 382.36 97.8041 383.75 97.8041 385.35C97.8041 386.95 97.4841 388.35 96.8441 389.55C96.2241 390.73 95.3341 391.64 94.1741 392.28C93.0141 392.92 91.6741 393.24 90.1541 393.24ZM90.1241 390.3C91.4041 390.3 92.3741 389.89 93.0341 389.07C93.7141 388.23 94.0541 386.99 94.0541 385.35C94.0541 383.73 93.7141 382.5 93.0341 381.66C92.3541 380.8 91.3941 380.37 90.1541 380.37C88.8941 380.37 87.9241 380.8 87.2441 381.66C86.5641 382.5 86.2241 383.73 86.2241 385.35C86.2241 386.99 86.5541 388.23 87.2141 389.07C87.8941 389.89 88.8641 390.3 90.1241 390.3ZM114.838 377.85V393H111.178V390.66C110.698 391.5 110.058 392.14 109.258 392.58C108.458 393.02 107.538 393.24 106.498 393.24C102.798 393.24 100.948 391.16 100.948 387V377.85H104.668V387.03C104.668 388.13 104.888 388.94 105.328 389.46C105.788 389.98 106.488 390.24 107.428 390.24C108.528 390.24 109.408 389.88 110.068 389.16C110.728 388.44 111.058 387.48 111.058 386.28V377.85H114.838ZM127.069 377.49C127.649 377.49 128.149 377.57 128.569 377.73L128.539 381.15C127.899 380.89 127.239 380.76 126.559 380.76C125.279 380.76 124.299 381.13 123.619 381.87C122.959 382.61 122.629 383.59 122.629 384.81V393H118.909V382.14C118.909 380.54 118.829 379.11 118.669 377.85H122.179L122.479 380.52C122.859 379.54 123.459 378.79 124.279 378.27C125.099 377.75 126.029 377.49 127.069 377.49ZM136.061 393.24C133.321 393.24 131.141 392.6 129.521 391.32L130.571 388.68C132.191 389.88 134.041 390.48 136.121 390.48C137.021 390.48 137.711 390.33 138.191 390.03C138.691 389.73 138.941 389.31 138.941 388.77C138.941 388.31 138.771 387.95 138.431 387.69C138.091 387.41 137.511 387.17 136.691 386.97L134.171 386.4C131.411 385.8 130.031 384.39 130.031 382.17C130.031 381.25 130.291 380.44 130.811 379.74C131.331 379.02 132.061 378.46 133.001 378.06C133.941 377.66 135.031 377.46 136.271 377.46C137.351 377.46 138.391 377.63 139.391 377.97C140.391 378.29 141.271 378.76 142.031 379.38L140.921 381.93C139.401 380.81 137.841 380.25 136.241 380.25C135.381 380.25 134.711 380.41 134.231 380.73C133.751 381.05 133.511 381.49 133.511 382.05C133.511 382.49 133.651 382.84 133.931 383.1C134.231 383.36 134.731 383.58 135.431 383.76L138.011 384.33C139.511 384.67 140.601 385.2 141.281 385.92C141.981 386.62 142.331 387.54 142.331 388.68C142.331 390.08 141.771 391.19 140.651 392.01C139.531 392.83 138.001 393.24 136.061 393.24ZM158.8 385.62H148.36C148.44 387.24 148.84 388.44 149.56 389.22C150.3 389.98 151.39 390.36 152.83 390.36C154.49 390.36 156.03 389.82 157.45 388.74L158.53 391.32C157.81 391.9 156.92 392.37 155.86 392.73C154.82 393.07 153.76 393.24 152.68 393.24C150.2 393.24 148.25 392.54 146.83 391.14C145.41 389.74 144.7 387.82 144.7 385.38C144.7 383.84 145.01 382.47 145.63 381.27C146.25 380.07 147.12 379.14 148.24 378.48C149.36 377.8 150.63 377.46 152.05 377.46C154.13 377.46 155.77 378.14 156.97 379.5C158.19 380.84 158.8 382.69 158.8 385.05V385.62ZM152.14 380.16C151.14 380.16 150.32 380.46 149.68 381.06C149.06 381.64 148.66 382.49 148.48 383.61H155.53C155.41 382.47 155.06 381.61 154.48 381.03C153.92 380.45 153.14 380.16 152.14 380.16ZM170.136 377.49C170.716 377.49 171.216 377.57 171.636 377.73L171.606 381.15C170.966 380.89 170.306 380.76 169.626 380.76C168.346 380.76 167.366 381.13 166.686 381.87C166.026 382.61 165.696 383.59 165.696 384.81V393H161.976V382.14C161.976 380.54 161.896 379.11 161.736 377.85H165.246L165.546 380.52C165.926 379.54 166.526 378.79 167.346 378.27C168.166 377.75 169.096 377.49 170.136 377.49ZM187.921 377.85V393H184.231V390.57C183.771 391.41 183.111 392.07 182.251 392.55C181.391 393.01 180.411 393.24 179.311 393.24C177.991 393.24 176.821 392.92 175.801 392.28C174.781 391.64 173.991 390.73 173.431 389.55C172.871 388.37 172.591 387 172.591 385.44C172.591 383.88 172.871 382.5 173.431 381.3C174.011 380.08 174.811 379.14 175.831 378.48C176.851 377.8 178.011 377.46 179.311 377.46C180.411 377.46 181.391 377.7 182.251 378.18C183.111 378.64 183.771 379.29 184.231 380.13V377.85H187.921ZM180.331 390.3C181.571 390.3 182.531 389.87 183.211 389.01C183.891 388.15 184.231 386.94 184.231 385.38C184.231 383.78 183.891 382.55 183.211 381.69C182.531 380.83 181.561 380.4 180.301 380.4C179.061 380.4 178.091 380.85 177.391 381.75C176.711 382.63 176.371 383.86 176.371 385.44C176.371 387 176.711 388.2 177.391 389.04C178.091 389.88 179.071 390.3 180.331 390.3Z" fill="black"/>
<path d="M72.13 472.27C69.19 472.27 66.96 471.52 65.44 470.02C63.94 468.5 63.19 466.28 63.19 463.36V450.64H67V463.57C67 465.41 67.43 466.81 68.29 467.77C69.15 468.71 70.43 469.18 72.13 469.18C73.79 469.18 75.05 468.7 75.91 467.74C76.79 466.78 77.23 465.39 77.23 463.57V450.64H81.04V463.36C81.04 466.26 80.28 468.47 78.76 469.99C77.24 471.51 75.03 472.27 72.13 472.27ZM93.917 456.46C97.537 456.46 99.347 458.54 99.347 462.7V472H95.597V462.88C95.597 461.68 95.367 460.81 94.907 460.27C94.447 459.71 93.737 459.43 92.777 459.43C91.637 459.43 90.717 459.8 90.017 460.54C89.317 461.26 88.967 462.22 88.967 463.42V472H85.247V461.14C85.247 459.54 85.167 458.11 85.007 456.85H88.517L88.787 459.34C89.307 458.42 90.007 457.71 90.887 457.21C91.787 456.71 92.797 456.46 93.917 456.46ZM117.813 456.85V472H114.123V469.57C113.663 470.41 113.003 471.07 112.143 471.55C111.283 472.01 110.303 472.24 109.203 472.24C107.883 472.24 106.713 471.92 105.693 471.28C104.673 470.64 103.883 469.73 103.323 468.55C102.763 467.37 102.483 466 102.483 464.44C102.483 462.88 102.763 461.5 103.323 460.3C103.903 459.08 104.703 458.14 105.723 457.48C106.743 456.8 107.903 456.46 109.203 456.46C110.303 456.46 111.283 456.7 112.143 457.18C113.003 457.64 113.663 458.29 114.123 459.13V456.85H117.813ZM110.223 469.3C111.463 469.3 112.423 468.87 113.103 468.01C113.783 467.15 114.123 465.94 114.123 464.38C114.123 462.78 113.783 461.55 113.103 460.69C112.423 459.83 111.453 459.4 110.193 459.4C108.953 459.4 107.983 459.85 107.283 460.75C106.603 461.63 106.263 462.86 106.263 464.44C106.263 466 106.603 467.2 107.283 468.04C107.983 468.88 108.963 469.3 110.223 469.3ZM128.767 472.24C127.187 472.24 125.817 471.92 124.657 471.28C123.497 470.64 122.607 469.74 121.987 468.58C121.367 467.4 121.057 466.02 121.057 464.44C121.057 462.86 121.377 461.47 122.017 460.27C122.677 459.07 123.597 458.14 124.777 457.48C125.977 456.8 127.357 456.46 128.917 456.46C129.997 456.46 131.037 456.63 132.037 456.97C133.057 457.31 133.867 457.78 134.467 458.38L133.417 461.02C132.777 460.5 132.097 460.11 131.377 459.85C130.657 459.57 129.947 459.43 129.247 459.43C127.887 459.43 126.827 459.86 126.067 460.72C125.307 461.56 124.927 462.78 124.927 464.38C124.927 465.98 125.297 467.2 126.037 468.04C126.797 468.88 127.867 469.3 129.247 469.3C129.947 469.3 130.657 469.16 131.377 468.88C132.097 468.6 132.777 468.2 133.417 467.68L134.467 470.32C133.827 470.92 132.997 471.39 131.977 471.73C130.957 472.07 129.887 472.24 128.767 472.24ZM151.475 456.85V472H147.785V469.57C147.325 470.41 146.665 471.07 145.805 471.55C144.945 472.01 143.965 472.24 142.865 472.24C141.545 472.24 140.375 471.92 139.355 471.28C138.335 470.64 137.545 469.73 136.985 468.55C136.425 467.37 136.145 466 136.145 464.44C136.145 462.88 136.425 461.5 136.985 460.3C137.565 459.08 138.365 458.14 139.385 457.48C140.405 456.8 141.565 456.46 142.865 456.46C143.965 456.46 144.945 456.7 145.805 457.18C146.665 457.64 147.325 458.29 147.785 459.13V456.85H151.475ZM143.885 469.3C145.125 469.3 146.085 468.87 146.765 468.01C147.445 467.15 147.785 465.94 147.785 464.38C147.785 462.78 147.445 461.55 146.765 460.69C146.085 459.83 145.115 459.4 143.855 459.4C142.615 459.4 141.645 459.85 140.945 460.75C140.265 461.63 139.925 462.86 139.925 464.44C139.925 466 140.265 467.2 140.945 468.04C141.645 468.88 142.625 469.3 143.885 469.3ZM170.05 449.92V472H166.36V469.57C165.9 470.41 165.24 471.07 164.38 471.55C163.52 472.01 162.54 472.24 161.44 472.24C160.14 472.24 158.98 471.91 157.96 471.25C156.94 470.59 156.14 469.66 155.56 468.46C155 467.24 154.72 465.85 154.72 464.29C154.72 462.73 155 461.36 155.56 460.18C156.12 459 156.91 458.09 157.93 457.45C158.95 456.79 160.12 456.46 161.44 456.46C162.52 456.46 163.48 456.69 164.32 457.15C165.18 457.59 165.84 458.22 166.3 459.04V449.92H170.05ZM162.43 469.3C163.67 469.3 164.63 468.87 165.31 468.01C166.01 467.15 166.36 465.93 166.36 464.35C166.36 462.77 166.02 461.55 165.34 460.69C164.66 459.83 163.7 459.4 162.46 459.4C161.2 459.4 160.22 459.83 159.52 460.69C158.84 461.53 158.5 462.73 158.5 464.29C158.5 465.87 158.84 467.1 159.52 467.98C160.22 468.86 161.19 469.3 162.43 469.3ZM187.394 464.62H176.954C177.034 466.24 177.434 467.44 178.154 468.22C178.894 468.98 179.984 469.36 181.424 469.36C183.084 469.36 184.624 468.82 186.044 467.74L187.124 470.32C186.404 470.9 185.514 471.37 184.454 471.73C183.414 472.07 182.354 472.24 181.274 472.24C178.794 472.24 176.844 471.54 175.424 470.14C174.004 468.74 173.294 466.82 173.294 464.38C173.294 462.84 173.604 461.47 174.224 460.27C174.844 459.07 175.714 458.14 176.834 457.48C177.954 456.8 179.224 456.46 180.644 456.46C182.724 456.46 184.364 457.14 185.564 458.5C186.784 459.84 187.394 461.69 187.394 464.05V464.62ZM180.734 459.16C179.734 459.16 178.914 459.46 178.274 460.06C177.654 460.64 177.254 461.49 177.074 462.61H184.124C184.004 461.47 183.654 460.61 183.074 460.03C182.514 459.45 181.734 459.16 180.734 459.16ZM208.449 456.46C210.169 456.46 211.449 456.98 212.289 458.02C213.129 459.04 213.549 460.6 213.549 462.7V472H209.799V462.82C209.799 461.62 209.599 460.76 209.199 460.24C208.819 459.7 208.179 459.43 207.279 459.43C206.239 459.43 205.419 459.8 204.819 460.54C204.239 461.26 203.949 462.26 203.949 463.54V472H200.199V462.82C200.199 461.64 199.989 460.78 199.569 460.24C199.169 459.7 198.529 459.43 197.649 459.43C196.609 459.43 195.789 459.8 195.189 460.54C194.589 461.26 194.289 462.26 194.289 463.54V472H190.569V461.14C190.569 459.54 190.489 458.11 190.329 456.85H193.839L194.109 459.25C194.549 458.35 195.179 457.66 195.999 457.18C196.839 456.7 197.799 456.46 198.879 456.46C201.199 456.46 202.709 457.42 203.409 459.34C203.889 458.44 204.569 457.74 205.449 457.24C206.349 456.72 207.349 456.46 208.449 456.46ZM231.892 456.85L224.842 473.02C224.042 474.9 223.022 476.27 221.782 477.13C220.542 477.99 219.012 478.56 217.192 478.84L216.352 475.96C217.772 475.64 218.832 475.23 219.532 474.73C220.252 474.25 220.832 473.53 221.272 472.57L221.752 471.46L215.452 456.85H219.382L223.732 467.74L228.172 456.85H231.892Z" fill="black"/>
<path d="M63.31 292.64H77.26V295.73H67.15V301.58H76.66V304.7H67.15V314H63.31V292.64ZM94.405 298.85V314H90.715V311.57C90.255 312.41 89.595 313.07 88.735 313.55C87.875 314.01 86.895 314.24 85.795 314.24C84.475 314.24 83.305 313.92 82.285 313.28C81.265 312.64 80.475 311.73 79.915 310.55C79.355 309.37 79.075 308 79.075 306.44C79.075 304.88 79.355 303.5 79.915 302.3C80.495 301.08 81.295 300.14 82.315 299.48C83.335 298.8 84.495 298.46 85.795 298.46C86.895 298.46 87.875 298.7 88.735 299.18C89.595 299.64 90.255 300.29 90.715 301.13V298.85H94.405ZM86.815 311.3C88.055 311.3 89.015 310.87 89.695 310.01C90.375 309.15 90.715 307.94 90.715 306.38C90.715 304.78 90.375 303.55 89.695 302.69C89.015 301.83 88.045 301.4 86.785 301.4C85.545 301.4 84.575 301.85 83.875 302.75C83.195 303.63 82.855 304.86 82.855 306.44C82.855 308 83.195 309.2 83.875 310.04C84.575 310.88 85.555 311.3 86.815 311.3ZM105.359 314.24C103.779 314.24 102.409 313.92 101.249 313.28C100.089 312.64 99.1992 311.74 98.5792 310.58C97.9592 309.4 97.6492 308.02 97.6492 306.44C97.6492 304.86 97.9692 303.47 98.6092 302.27C99.2692 301.07 100.189 300.14 101.369 299.48C102.569 298.8 103.949 298.46 105.509 298.46C106.589 298.46 107.629 298.63 108.629 298.97C109.649 299.31 110.459 299.78 111.059 300.38L110.009 303.02C109.369 302.5 108.689 302.11 107.969 301.85C107.249 301.57 106.539 301.43 105.839 301.43C104.479 301.43 103.419 301.86 102.659 302.72C101.899 303.56 101.519 304.78 101.519 306.38C101.519 307.98 101.889 309.2 102.629 310.04C103.389 310.88 104.459 311.3 105.839 311.3C106.539 311.3 107.249 311.16 107.969 310.88C108.689 310.6 109.369 310.2 110.009 309.68L111.059 312.32C110.419 312.92 109.589 313.39 108.569 313.73C107.549 314.07 106.479 314.24 105.359 314.24ZM126.837 306.62H116.397C116.477 308.24 116.877 309.44 117.597 310.22C118.337 310.98 119.427 311.36 120.867 311.36C122.527 311.36 124.067 310.82 125.487 309.74L126.567 312.32C125.847 312.9 124.957 313.37 123.897 313.73C122.857 314.07 121.797 314.24 120.717 314.24C118.237 314.24 116.287 313.54 114.867 312.14C113.447 310.74 112.737 308.82 112.737 306.38C112.737 304.84 113.047 303.47 113.667 302.27C114.287 301.07 115.157 300.14 116.277 299.48C117.397 298.8 118.667 298.46 120.087 298.46C122.167 298.46 123.807 299.14 125.007 300.5C126.227 301.84 126.837 303.69 126.837 306.05V306.62ZM120.177 301.16C119.177 301.16 118.357 301.46 117.717 302.06C117.097 302.64 116.697 303.49 116.517 304.61H123.567C123.447 303.47 123.097 302.61 122.517 302.03C121.957 301.45 121.177 301.16 120.177 301.16ZM138.653 298.46C139.973 298.46 141.133 298.79 142.133 299.45C143.153 300.09 143.943 301 144.503 302.18C145.063 303.36 145.343 304.73 145.343 306.29C145.343 307.85 145.053 309.24 144.473 310.46C143.913 311.66 143.123 312.59 142.103 313.25C141.103 313.91 139.953 314.24 138.653 314.24C137.533 314.24 136.533 314 135.653 313.52C134.793 313.04 134.143 312.37 133.703 311.51V314H130.013V291.92H133.733V301.13C134.193 300.29 134.853 299.64 135.713 299.18C136.573 298.7 137.553 298.46 138.653 298.46ZM137.663 311.3C138.903 311.3 139.863 310.86 140.543 309.98C141.223 309.1 141.563 307.87 141.563 306.29C141.563 304.73 141.223 303.53 140.543 302.69C139.863 301.83 138.893 301.4 137.633 301.4C136.373 301.4 135.403 301.83 134.723 302.69C134.043 303.55 133.703 304.77 133.703 306.35C133.703 307.95 134.043 309.18 134.723 310.04C135.403 310.88 136.383 311.3 137.663 311.3ZM155.486 314.24C153.946 314.24 152.586 313.92 151.406 313.28C150.246 312.64 149.346 311.73 148.706 310.55C148.086 309.35 147.776 307.95 147.776 306.35C147.776 304.75 148.086 303.36 148.706 302.18C149.346 300.98 150.246 300.06 151.406 299.42C152.586 298.78 153.946 298.46 155.486 298.46C157.006 298.46 158.346 298.78 159.506 299.42C160.666 300.06 161.556 300.98 162.176 302.18C162.816 303.36 163.136 304.75 163.136 306.35C163.136 307.95 162.816 309.35 162.176 310.55C161.556 311.73 160.666 312.64 159.506 313.28C158.346 313.92 157.006 314.24 155.486 314.24ZM155.456 311.3C156.736 311.3 157.706 310.89 158.366 310.07C159.046 309.23 159.386 307.99 159.386 306.35C159.386 304.73 159.046 303.5 158.366 302.66C157.686 301.8 156.726 301.37 155.486 301.37C154.226 301.37 153.256 301.8 152.576 302.66C151.896 303.5 151.556 304.73 151.556 306.35C151.556 307.99 151.886 309.23 152.546 310.07C153.226 310.89 154.196 311.3 155.456 311.3ZM173.24 314.24C171.7 314.24 170.34 313.92 169.16 313.28C168 312.64 167.1 311.73 166.46 310.55C165.84 309.35 165.53 307.95 165.53 306.35C165.53 304.75 165.84 303.36 166.46 302.18C167.1 300.98 168 300.06 169.16 299.42C170.34 298.78 171.7 298.46 173.24 298.46C174.76 298.46 176.1 298.78 177.26 299.42C178.42 300.06 179.31 300.98 179.93 302.18C180.57 303.36 180.89 304.75 180.89 306.35C180.89 307.95 180.57 309.35 179.93 310.55C179.31 311.73 178.42 312.64 177.26 313.28C176.1 313.92 174.76 314.24 173.24 314.24ZM173.21 311.3C174.49 311.3 175.46 310.89 176.12 310.07C176.8 309.23 177.14 307.99 177.14 306.35C177.14 304.73 176.8 303.5 176.12 302.66C175.44 301.8 174.48 301.37 173.24 301.37C171.98 301.37 171.01 301.8 170.33 302.66C169.65 303.5 169.31 304.73 169.31 306.35C169.31 307.99 169.64 309.23 170.3 310.07C170.98 310.89 171.95 311.3 173.21 311.3ZM194.474 314L187.844 307.01V314H184.124V291.92H187.844V305.54L194.084 298.88H198.614L191.804 306.11L199.154 314H194.474Z" fill="black"/>
<path d="M68.32 611.82H61.36V608.64H79.21V611.82H72.22V630H68.32V611.82ZM92.5012 622.62H82.0612C82.1412 624.24 82.5412 625.44 83.2612 626.22C84.0012 626.98 85.0912 627.36 86.5312 627.36C88.1912 627.36 89.7312 626.82 91.1512 625.74L92.2312 628.32C91.5112 628.9 90.6212 629.37 89.5612 629.73C88.5212 630.07 87.4612 630.24 86.3812 630.24C83.9012 630.24 81.9512 629.54 80.5312 628.14C79.1112 626.74 78.4012 624.82 78.4012 622.38C78.4012 620.84 78.7112 619.47 79.3312 618.27C79.9512 617.07 80.8212 616.14 81.9412 615.48C83.0612 614.8 84.3312 614.46 85.7512 614.46C87.8312 614.46 89.4712 615.14 90.6712 616.5C91.8912 617.84 92.5012 619.69 92.5012 622.05V622.62ZM85.8412 617.16C84.8412 617.16 84.0212 617.46 83.3812 618.06C82.7612 618.64 82.3612 619.49 82.1812 620.61H89.2312C89.1112 619.47 88.7612 618.61 88.1812 618.03C87.6212 617.45 86.8412 617.16 85.8412 617.16ZM110.167 614.85V630H106.477V627.57C106.017 628.41 105.357 629.07 104.497 629.55C103.637 630.01 102.657 630.24 101.557 630.24C100.237 630.24 99.0667 629.92 98.0467 629.28C97.0267 628.64 96.2367 627.73 95.6767 626.55C95.1167 625.37 94.8367 624 94.8367 622.44C94.8367 620.88 95.1167 619.5 95.6767 618.3C96.2567 617.08 97.0567 616.14 98.0767 615.48C99.0967 614.8 100.257 614.46 101.557 614.46C102.657 614.46 103.637 614.7 104.497 615.18C105.357 615.64 106.017 616.29 106.477 617.13V614.85H110.167ZM102.577 627.3C103.817 627.3 104.777 626.87 105.457 626.01C106.137 625.15 106.477 623.94 106.477 622.38C106.477 620.78 106.137 619.55 105.457 618.69C104.777 617.83 103.807 617.4 102.547 617.4C101.307 617.4 100.337 617.85 99.6367 618.75C98.9567 619.63 98.6167 620.86 98.6167 622.44C98.6167 624 98.9567 625.2 99.6367 626.04C100.337 626.88 101.317 627.3 102.577 627.3ZM121.121 630.24C119.541 630.24 118.171 629.92 117.011 629.28C115.851 628.64 114.961 627.74 114.341 626.58C113.721 625.4 113.411 624.02 113.411 622.44C113.411 620.86 113.731 619.47 114.371 618.27C115.031 617.07 115.951 616.14 117.131 615.48C118.331 614.8 119.711 614.46 121.271 614.46C122.351 614.46 123.391 614.63 124.391 614.97C125.411 615.31 126.221 615.78 126.821 616.38L125.771 619.02C125.131 618.5 124.451 618.11 123.731 617.85C123.011 617.57 122.301 617.43 121.601 617.43C120.241 617.43 119.181 617.86 118.421 618.72C117.661 619.56 117.281 620.78 117.281 622.38C117.281 623.98 117.651 625.2 118.391 626.04C119.151 626.88 120.221 627.3 121.601 627.3C122.301 627.3 123.011 627.16 123.731 626.88C124.451 626.6 125.131 626.2 125.771 625.68L126.821 628.32C126.181 628.92 125.351 629.39 124.331 629.73C123.311 630.07 122.241 630.24 121.121 630.24ZM138.009 614.46C141.629 614.46 143.439 616.54 143.439 620.7V630H139.689V620.88C139.689 619.68 139.459 618.81 138.999 618.27C138.539 617.71 137.829 617.43 136.869 617.43C135.729 617.43 134.809 617.8 134.109 618.54C133.409 619.26 133.059 620.22 133.059 621.42V630H129.339V607.92H133.059V617.04C133.579 616.22 134.269 615.59 135.129 615.15C135.989 614.69 136.949 614.46 138.009 614.46ZM160.675 622.62H150.235C150.315 624.24 150.715 625.44 151.435 626.22C152.175 626.98 153.265 627.36 154.705 627.36C156.365 627.36 157.905 626.82 159.325 625.74L160.405 628.32C159.685 628.9 158.795 629.37 157.735 629.73C156.695 630.07 155.635 630.24 154.555 630.24C152.075 630.24 150.125 629.54 148.705 628.14C147.285 626.74 146.575 624.82 146.575 622.38C146.575 620.84 146.885 619.47 147.505 618.27C148.125 617.07 148.995 616.14 150.115 615.48C151.235 614.8 152.505 614.46 153.925 614.46C156.005 614.46 157.645 615.14 158.845 616.5C160.065 617.84 160.675 619.69 160.675 622.05V622.62ZM154.015 617.16C153.015 617.16 152.195 617.46 151.555 618.06C150.935 618.64 150.535 619.49 150.355 620.61H157.405C157.285 619.47 156.935 618.61 156.355 618.03C155.795 617.45 155.015 617.16 154.015 617.16ZM172.011 614.49C172.591 614.49 173.091 614.57 173.511 614.73L173.481 618.15C172.841 617.89 172.181 617.76 171.501 617.76C170.221 617.76 169.241 618.13 168.561 618.87C167.901 619.61 167.571 620.59 167.571 621.81V630H163.851V619.14C163.851 617.54 163.771 616.11 163.611 614.85H167.121L167.421 617.52C167.801 616.54 168.401 615.79 169.221 615.27C170.041 614.75 170.971 614.49 172.011 614.49ZM181.002 630.24C178.262 630.24 176.082 629.6 174.462 628.32L175.512 625.68C177.132 626.88 178.982 627.48 181.062 627.48C181.962 627.48 182.652 627.33 183.132 627.03C183.632 626.73 183.882 626.31 183.882 625.77C183.882 625.31 183.712 624.95 183.372 624.69C183.032 624.41 182.452 624.17 181.632 623.97L179.112 623.4C176.352 622.8 174.972 621.39 174.972 619.17C174.972 618.25 175.232 617.44 175.752 616.74C176.272 616.02 177.002 615.46 177.942 615.06C178.882 614.66 179.972 614.46 181.212 614.46C182.292 614.46 183.332 614.63 184.332 614.97C185.332 615.29 186.212 615.76 186.972 616.38L185.862 618.93C184.342 617.81 182.782 617.25 181.182 617.25C180.322 617.25 179.652 617.41 179.172 617.73C178.692 618.05 178.452 618.49 178.452 619.05C178.452 619.49 178.592 619.84 178.872 620.1C179.172 620.36 179.672 620.58 180.372 620.76L182.952 621.33C184.452 621.67 185.542 622.2 186.222 622.92C186.922 623.62 187.272 624.54 187.272 625.68C187.272 627.08 186.712 628.19 185.592 629.01C184.472 629.83 182.942 630.24 181.002 630.24ZM198.744 620.4H207.774V623.4H198.744V620.4ZM72.79 679.27C70.73 679.27 68.93 678.83 67.39 677.95C65.87 677.05 64.69 675.78 63.85 674.14C63.03 672.48 62.62 670.53 62.62 668.29C62.62 666.07 63.03 664.14 63.85 662.5C64.67 660.84 65.84 659.57 67.36 658.69C68.9 657.81 70.71 657.37 72.79 657.37C74.87 657.37 76.67 657.81 78.19 658.69C79.73 659.57 80.9 660.84 81.7 662.5C82.52 664.14 82.93 666.07 82.93 668.29C82.93 670.53 82.52 672.48 81.7 674.14C80.88 675.78 79.71 677.05 78.19 677.95C76.67 678.83 74.87 679.27 72.79 679.27ZM72.79 676.18C74.77 676.18 76.31 675.5 77.41 674.14C78.51 672.78 79.06 670.83 79.06 668.29C79.06 665.77 78.51 663.84 77.41 662.5C76.31 661.14 74.77 660.46 72.79 660.46C70.81 660.46 69.27 661.13 68.17 662.47C67.07 663.81 66.52 665.75 66.52 668.29C66.52 670.83 67.07 672.78 68.17 674.14C69.27 675.5 70.81 676.18 72.79 676.18ZM95.294 663.46C98.914 663.46 100.724 665.54 100.724 669.7V679H96.974V669.88C96.974 668.68 96.744 667.81 96.284 667.27C95.824 666.71 95.114 666.43 94.154 666.43C93.014 666.43 92.094 666.8 91.394 667.54C90.694 668.26 90.344 669.22 90.344 670.42V679H86.624V668.14C86.624 666.54 86.544 665.11 86.384 663.85H89.894L90.164 666.34C90.684 665.42 91.384 664.71 92.264 664.21C93.164 663.71 94.174 663.46 95.294 663.46ZM104.7 656.92H108.42V679H104.7V656.92ZM112.522 663.85H116.242V679H112.522V663.85ZM116.452 656.98V660.67H112.282V656.98H116.452ZM129.015 663.46C132.635 663.46 134.445 665.54 134.445 669.7V679H130.695V669.88C130.695 668.68 130.465 667.81 130.005 667.27C129.545 666.71 128.835 666.43 127.875 666.43C126.735 666.43 125.815 666.8 125.115 667.54C124.415 668.26 124.065 669.22 124.065 670.42V679H120.345V668.14C120.345 666.54 120.265 665.11 120.105 663.85H123.615L123.885 666.34C124.405 665.42 125.105 664.71 125.985 664.21C126.885 663.71 127.895 663.46 129.015 663.46ZM151.681 671.62H141.241C141.321 673.24 141.721 674.44 142.441 675.22C143.181 675.98 144.271 676.36 145.711 676.36C147.371 676.36 148.911 675.82 150.331 674.74L151.411 677.32C150.691 677.9 149.801 678.37 148.741 678.73C147.701 679.07 146.641 679.24 145.561 679.24C143.081 679.24 141.131 678.54 139.711 677.14C138.291 675.74 137.581 673.82 137.581 671.38C137.581 669.84 137.891 668.47 138.511 667.27C139.131 666.07 140.001 665.14 141.121 664.48C142.241 663.8 143.511 663.46 144.931 663.46C147.011 663.46 148.651 664.14 149.851 665.5C151.071 666.84 151.681 668.69 151.681 671.05V671.62ZM145.021 666.16C144.021 666.16 143.201 666.46 142.561 667.06C141.941 667.64 141.541 668.49 141.361 669.61H148.411C148.291 668.47 147.941 667.61 147.361 667.03C146.801 666.45 146.021 666.16 145.021 666.16ZM168.369 660.82H161.409V657.64H179.259V660.82H172.269V679H168.369V660.82ZM192.55 671.62H182.11C182.19 673.24 182.59 674.44 183.31 675.22C184.05 675.98 185.14 676.36 186.58 676.36C188.24 676.36 189.78 675.82 191.2 674.74L192.28 677.32C191.56 677.9 190.67 678.37 189.61 678.73C188.57 679.07 187.51 679.24 186.43 679.24C183.95 679.24 182 678.54 180.58 677.14C179.16 675.74 178.45 673.82 178.45 671.38C178.45 669.84 178.76 668.47 179.38 667.27C180 666.07 180.87 665.14 181.99 664.48C183.11 663.8 184.38 663.46 185.8 663.46C187.88 663.46 189.52 664.14 190.72 665.5C191.94 666.84 192.55 668.69 192.55 671.05V671.62ZM185.89 666.16C184.89 666.16 184.07 666.46 183.43 667.06C182.81 667.64 182.41 668.49 182.23 669.61H189.28C189.16 668.47 188.81 667.61 188.23 667.03C187.67 666.45 186.89 666.16 185.89 666.16ZM210.216 663.85V679H206.526V676.57C206.066 677.41 205.406 678.07 204.546 678.55C203.686 679.01 202.706 679.24 201.606 679.24C200.286 679.24 199.116 678.92 198.096 678.28C197.076 677.64 196.286 676.73 195.726 675.55C195.166 674.37 194.886 673 194.886 671.44C194.886 669.88 195.166 668.5 195.726 667.3C196.306 666.08 197.106 665.14 198.126 664.48C199.146 663.8 200.306 663.46 201.606 663.46C202.706 663.46 203.686 663.7 204.546 664.18C205.406 664.64 206.066 665.29 206.526 666.13V663.85H210.216ZM202.626 676.3C203.866 676.3 204.826 675.87 205.506 675.01C206.186 674.15 206.526 672.94 206.526 671.38C206.526 669.78 206.186 668.55 205.506 667.69C204.826 666.83 203.856 666.4 202.596 666.4C201.356 666.4 200.386 666.85 199.686 667.75C199.006 668.63 198.666 669.86 198.666 671.44C198.666 673 199.006 674.2 199.686 675.04C200.386 675.88 201.366 676.3 202.626 676.3ZM221.17 679.24C219.59 679.24 218.22 678.92 217.06 678.28C215.9 677.64 215.01 676.74 214.39 675.58C213.77 674.4 213.46 673.02 213.46 671.44C213.46 669.86 213.78 668.47 214.42 667.27C215.08 666.07 216 665.14 217.18 664.48C218.38 663.8 219.76 663.46 221.32 663.46C222.4 663.46 223.44 663.63 224.44 663.97C225.46 664.31 226.27 664.78 226.87 665.38L225.82 668.02C225.18 667.5 224.5 667.11 223.78 666.85C223.06 666.57 222.35 666.43 221.65 666.43C220.29 666.43 219.23 666.86 218.47 667.72C217.71 668.56 217.33 669.78 217.33 671.38C217.33 672.98 217.7 674.2 218.44 675.04C219.2 675.88 220.27 676.3 221.65 676.3C222.35 676.3 223.06 676.16 223.78 675.88C224.5 675.6 225.18 675.2 225.82 674.68L226.87 677.32C226.23 677.92 225.4 678.39 224.38 678.73C223.36 679.07 222.29 679.24 221.17 679.24ZM238.058 663.46C241.678 663.46 243.488 665.54 243.488 669.7V679H239.738V669.88C239.738 668.68 239.508 667.81 239.048 667.27C238.588 666.71 237.878 666.43 236.918 666.43C235.778 666.43 234.858 666.8 234.158 667.54C233.458 668.26 233.108 669.22 233.108 670.42V679H229.388V656.92H233.108V666.04C233.628 665.22 234.318 664.59 235.178 664.15C236.038 663.69 236.998 663.46 238.058 663.46ZM247.464 663.85H251.184V679H247.464V663.85ZM251.394 656.98V660.67H247.224V656.98H251.394ZM263.956 663.46C267.576 663.46 269.386 665.54 269.386 669.7V679H265.636V669.88C265.636 668.68 265.406 667.81 264.946 667.27C264.486 666.71 263.776 666.43 262.816 666.43C261.676 666.43 260.756 666.8 260.056 667.54C259.356 668.26 259.006 669.22 259.006 670.42V679H255.286V668.14C255.286 666.54 255.206 665.11 255.046 663.85H258.556L258.826 666.34C259.346 665.42 260.046 664.71 260.926 664.21C261.826 663.71 262.836 663.46 263.956 663.46ZM288.002 663.85V678.52C288.002 680.88 287.352 682.67 286.052 683.89C284.752 685.11 282.842 685.72 280.322 685.72C277.982 685.72 275.922 685.23 274.142 684.25L274.742 681.4C276.582 682.36 278.412 682.84 280.232 682.84C282.932 682.84 284.282 681.5 284.282 678.82V675.82C283.822 676.64 283.152 677.31 282.272 677.83C281.392 678.33 280.402 678.58 279.302 678.58C277.982 678.58 276.802 678.27 275.762 677.65C274.742 677.01 273.942 676.12 273.362 674.98C272.802 673.82 272.522 672.5 272.522 671.02C272.522 669.54 272.802 668.23 273.362 667.09C273.942 665.93 274.742 665.04 275.762 664.42C276.802 663.78 277.982 663.46 279.302 663.46C280.422 663.46 281.412 663.7 282.272 664.18C283.152 664.64 283.822 665.29 284.282 666.13V663.85H288.002ZM280.292 675.64C281.532 675.64 282.502 675.23 283.202 674.41C283.922 673.59 284.282 672.46 284.282 671.02C284.282 669.58 283.932 668.45 283.232 667.63C282.532 666.81 281.552 666.4 280.292 666.4C279.052 666.4 278.072 666.81 277.352 667.63C276.652 668.45 276.302 669.58 276.302 671.02C276.302 672.46 276.652 673.59 277.352 674.41C278.072 675.23 279.052 675.64 280.292 675.64Z" fill="black"/>
<path d="M84.13 530.64V552H80.71V538.74L75.04 552H72.49L66.79 538.89V552H63.37V530.64H66.43L73.78 547.35L81.07 530.64H84.13ZM103.018 536.85V552H99.3283V549.57C98.8683 550.41 98.2083 551.07 97.3483 551.55C96.4883 552.01 95.5083 552.24 94.4083 552.24C93.0883 552.24 91.9183 551.92 90.8983 551.28C89.8783 550.64 89.0883 549.73 88.5283 548.55C87.9683 547.37 87.6883 546 87.6883 544.44C87.6883 542.88 87.9683 541.5 88.5283 540.3C89.1083 539.08 89.9083 538.14 90.9283 537.48C91.9483 536.8 93.1083 536.46 94.4083 536.46C95.5083 536.46 96.4883 536.7 97.3483 537.18C98.2083 537.64 98.8683 538.29 99.3283 539.13V536.85H103.018ZM95.4283 549.3C96.6683 549.3 97.6283 548.87 98.3083 548.01C98.9883 547.15 99.3283 545.94 99.3283 544.38C99.3283 542.78 98.9883 541.55 98.3083 540.69C97.6283 539.83 96.6583 539.4 95.3983 539.4C94.1583 539.4 93.1883 539.85 92.4883 540.75C91.8083 541.63 91.4683 542.86 91.4683 544.44C91.4683 546 91.8083 547.2 92.4883 548.04C93.1883 548.88 94.1683 549.3 95.4283 549.3ZM112.653 552.24C109.913 552.24 107.733 551.6 106.113 550.32L107.163 547.68C108.783 548.88 110.633 549.48 112.713 549.48C113.613 549.48 114.303 549.33 114.783 549.03C115.283 548.73 115.533 548.31 115.533 547.77C115.533 547.31 115.363 546.95 115.023 546.69C114.683 546.41 114.103 546.17 113.283 545.97L110.763 545.4C108.003 544.8 106.623 543.39 106.623 541.17C106.623 540.25 106.883 539.44 107.403 538.74C107.923 538.02 108.653 537.46 109.593 537.06C110.533 536.66 111.623 536.46 112.863 536.46C113.943 536.46 114.983 536.63 115.983 536.97C116.983 537.29 117.863 537.76 118.623 538.38L117.513 540.93C115.993 539.81 114.433 539.25 112.833 539.25C111.973 539.25 111.303 539.41 110.823 539.73C110.343 540.05 110.103 540.49 110.103 541.05C110.103 541.49 110.243 541.84 110.523 542.1C110.823 542.36 111.323 542.58 112.023 542.76L114.603 543.33C116.103 543.67 117.193 544.2 117.873 544.92C118.573 545.62 118.923 546.54 118.923 547.68C118.923 549.08 118.363 550.19 117.243 551.01C116.123 551.83 114.593 552.24 112.653 552.24ZM126.755 539.67V546.45C126.755 548.23 127.585 549.12 129.245 549.12C129.705 549.12 130.205 549.04 130.745 548.88V551.85C130.085 552.09 129.285 552.21 128.345 552.21C126.625 552.21 125.305 551.73 124.385 550.77C123.465 549.81 123.005 548.43 123.005 546.63V539.67H120.095V536.85H123.005V533.16L126.755 531.9V536.85H130.775V539.67H126.755ZM146.613 544.62H136.173C136.253 546.24 136.653 547.44 137.373 548.22C138.113 548.98 139.203 549.36 140.643 549.36C142.303 549.36 143.843 548.82 145.263 547.74L146.343 550.32C145.623 550.9 144.733 551.37 143.673 551.73C142.633 552.07 141.573 552.24 140.493 552.24C138.013 552.24 136.063 551.54 134.643 550.14C133.223 548.74 132.513 546.82 132.513 544.38C132.513 542.84 132.823 541.47 133.443 540.27C134.063 539.07 134.933 538.14 136.053 537.48C137.173 536.8 138.443 536.46 139.863 536.46C141.943 536.46 143.583 537.14 144.783 538.5C146.003 539.84 146.613 541.69 146.613 544.05V544.62ZM139.953 539.16C138.953 539.16 138.133 539.46 137.493 540.06C136.873 540.64 136.473 541.49 136.293 542.61H143.343C143.223 541.47 142.873 540.61 142.293 540.03C141.733 539.45 140.953 539.16 139.953 539.16ZM157.948 536.49C158.528 536.49 159.028 536.57 159.448 536.73L159.418 540.15C158.778 539.89 158.118 539.76 157.438 539.76C156.158 539.76 155.178 540.13 154.498 540.87C153.838 541.61 153.508 542.59 153.508 543.81V552H149.788V541.14C149.788 539.54 149.708 538.11 149.548 536.85H153.058L153.358 539.52C153.738 538.54 154.338 537.79 155.158 537.27C155.978 536.75 156.908 536.49 157.948 536.49ZM171.496 552.27C169.396 552.27 167.556 551.82 165.976 550.92C164.416 550.02 163.216 548.75 162.376 547.11C161.536 545.45 161.116 543.51 161.116 541.29C161.116 539.09 161.536 537.17 162.376 535.53C163.216 533.87 164.416 532.6 165.976 531.72C167.556 530.82 169.396 530.37 171.496 530.37C172.936 530.37 174.286 530.6 175.546 531.06C176.826 531.5 177.886 532.12 178.726 532.92L177.466 535.74C176.506 534.96 175.546 534.4 174.586 534.06C173.646 533.7 172.636 533.52 171.556 533.52C169.496 533.52 167.896 534.19 166.756 535.53C165.636 536.87 165.076 538.79 165.076 541.29C165.076 543.81 165.636 545.75 166.756 547.11C167.876 548.45 169.476 549.12 171.556 549.12C172.636 549.12 173.646 548.95 174.586 548.61C175.546 548.25 176.506 547.68 177.466 546.9L178.726 549.72C177.886 550.52 176.826 551.15 175.546 551.61C174.286 552.05 172.936 552.27 171.496 552.27ZM182.073 529.92H185.793V552H182.073V529.92ZM204.385 536.85V552H200.695V549.57C200.235 550.41 199.575 551.07 198.715 551.55C197.855 552.01 196.875 552.24 195.775 552.24C194.455 552.24 193.285 551.92 192.265 551.28C191.245 550.64 190.455 549.73 189.895 548.55C189.335 547.37 189.055 546 189.055 544.44C189.055 542.88 189.335 541.5 189.895 540.3C190.475 539.08 191.275 538.14 192.295 537.48C193.315 536.8 194.475 536.46 195.775 536.46C196.875 536.46 197.855 536.7 198.715 537.18C199.575 537.64 200.235 538.29 200.695 539.13V536.85H204.385ZM196.795 549.3C198.035 549.3 198.995 548.87 199.675 548.01C200.355 547.15 200.695 545.94 200.695 544.38C200.695 542.78 200.355 541.55 199.675 540.69C198.995 539.83 198.025 539.4 196.765 539.4C195.525 539.4 194.555 539.85 193.855 540.75C193.175 541.63 192.835 542.86 192.835 544.44C192.835 546 193.175 547.2 193.855 548.04C194.555 548.88 195.535 549.3 196.795 549.3ZM214.02 552.24C211.28 552.24 209.1 551.6 207.48 550.32L208.53 547.68C210.15 548.88 212 549.48 214.08 549.48C214.98 549.48 215.67 549.33 216.15 549.03C216.65 548.73 216.9 548.31 216.9 547.77C216.9 547.31 216.73 546.95 216.39 546.69C216.05 546.41 215.47 546.17 214.65 545.97L212.13 545.4C209.37 544.8 207.99 543.39 207.99 541.17C207.99 540.25 208.25 539.44 208.77 538.74C209.29 538.02 210.02 537.46 210.96 537.06C211.9 536.66 212.99 536.46 214.23 536.46C215.31 536.46 216.35 536.63 217.35 536.97C218.35 537.29 219.23 537.76 219.99 538.38L218.88 540.93C217.36 539.81 215.8 539.25 214.2 539.25C213.34 539.25 212.67 539.41 212.19 539.73C211.71 540.05 211.47 540.49 211.47 541.05C211.47 541.49 211.61 541.84 211.89 542.1C212.19 542.36 212.69 542.58 213.39 542.76L215.97 543.33C217.47 543.67 218.56 544.2 219.24 544.92C219.94 545.62 220.29 546.54 220.29 547.68C220.29 549.08 219.73 550.19 218.61 551.01C217.49 551.83 215.96 552.24 214.02 552.24ZM229.049 552.24C226.309 552.24 224.129 551.6 222.509 550.32L223.559 547.68C225.179 548.88 227.029 549.48 229.109 549.48C230.009 549.48 230.699 549.33 231.179 549.03C231.679 548.73 231.929 548.31 231.929 547.77C231.929 547.31 231.759 546.95 231.419 546.69C231.079 546.41 230.499 546.17 229.679 545.97L227.159 545.4C224.399 544.8 223.019 543.39 223.019 541.17C223.019 540.25 223.279 539.44 223.799 538.74C224.319 538.02 225.049 537.46 225.989 537.06C226.929 536.66 228.019 536.46 229.259 536.46C230.339 536.46 231.379 536.63 232.379 536.97C233.379 537.29 234.259 537.76 235.019 538.38L233.909 540.93C232.389 539.81 230.829 539.25 229.229 539.25C228.369 539.25 227.699 539.41 227.219 539.73C226.739 540.05 226.499 540.49 226.499 541.05C226.499 541.49 226.639 541.84 226.919 542.1C227.219 542.36 227.719 542.58 228.419 542.76L230.999 543.33C232.499 543.67 233.589 544.2 234.269 544.92C234.969 545.62 235.319 546.54 235.319 547.68C235.319 549.08 234.759 550.19 233.639 551.01C232.519 551.83 230.989 552.24 229.049 552.24Z" fill="black"/>
<path d="M372.263 230.99L366.099 225.082L364 227.08L372.263 235L390 217.998L387.916 216L372.263 230.99Z" fill="black"/>
<path d="M399.263 230.99L393.099 225.082L391 227.08L399.263 235L417 217.998L414.916 216L399.263 230.99Z" fill="black"/>
<path d="M1100.26 230.99L1094.1 225.082L1092 227.08L1100.26 235L1118 217.998L1115.92 216L1100.26 230.99Z" fill="black"/>
<path d="M1126.26 230.99L1120.1 225.082L1118 227.08L1126.26 235L1144 217.998L1141.92 216L1126.26 230.99Z" fill="black"/>
<path d="M610.263 230.99L604.099 225.082L602 227.08L610.263 235L628 217.998L625.916 216L610.263 230.99Z" fill="black"/>
<path d="M636.263 230.99L630.099 225.082L628 227.08L636.263 235L654 217.998L651.916 216L636.263 230.99Z" fill="black"/>
<path d="M864.263 230.99L858.099 225.082L856 227.08L864.263 235L882 217.998L879.916 216L864.263 230.99Z" fill="black"/>
<path d="M890.263 230.99L884.099 225.082L882 227.08L890.263 235L908 217.998L905.916 216L890.263 230.99Z" fill="black"/>
<path d="M372.263 310.99L366.099 305.082L364 307.08L372.263 315L390 297.998L387.916 296L372.263 310.99Z" fill="black"/>
<path d="M1100.26 311.99L1094.1 306.082L1092 308.08L1100.26 316L1118 298.998L1115.92 297L1100.26 311.99Z" fill="black"/>
<path d="M1126.26 311.99L1120.1 306.082L1118 308.08L1126.26 316L1144 298.998L1141.92 297L1126.26 311.99Z" fill="black"/>
<path d="M1324.26 389.99L1318.1 384.082L1316 386.08L1324.26 394L1342 376.998L1339.92 375L1324.26 389.99Z" fill="black"/>
<path d="M1324.26 306.99L1318.1 301.082L1316 303.08L1324.26 311L1342 293.998L1339.92 292L1324.26 306.99Z" fill="black"/>
<path d="M1352.26 306.99L1346.1 301.082L1344 303.08L1352.26 311L1370 293.998L1367.92 292L1352.26 306.99Z" fill="black"/>
<path d="M1352.26 389.99L1346.1 384.082L1344 386.08L1352.26 394L1370 376.998L1367.92 375L1352.26 389.99Z" fill="black"/>
<path d="M1352.26 469.99L1346.1 464.082L1344 466.08L1352.26 474L1370 456.998L1367.92 455L1352.26 469.99Z" fill="black"/>
<path d="M1352.26 546.99L1346.1 541.082L1344 543.08L1352.26 551L1370 533.998L1367.92 532L1352.26 546.99Z" fill="black"/>
<path d="M1324.26 230.99L1318.1 225.082L1316 227.08L1324.26 235L1342 217.998L1339.92 216L1324.26 230.99Z" fill="black"/>
<path d="M1324.26 468.99L1318.1 463.082L1316 465.08L1324.26 473L1342 455.998L1339.92 454L1324.26 468.99Z" fill="black"/>
<path d="M1324.26 544.99L1318.1 539.082L1316 541.08L1324.26 549L1342 531.998L1339.92 530L1324.26 544.99Z" fill="black"/>
<path d="M1324.26 624.99L1318.1 619.082L1316 621.08L1324.26 629L1342 611.998L1339.92 610L1324.26 624.99Z" fill="black"/>
<path d="M610.263 311.99L604.099 306.082L602 308.08L610.263 316L628 298.998L625.916 297L610.263 311.99Z" fill="black"/>
<path d="M636.263 311.99L630.099 306.082L628 308.08L636.263 316L654 298.998L651.916 297L636.263 311.99Z" fill="black"/>
<path d="M864.263 311.99L858.099 306.082L856 308.08L864.263 316L882 298.998L879.916 297L864.263 311.99Z" fill="black"/>
<path d="M890.263 311.99L884.099 306.082L882 308.08L890.263 316L908 298.998L905.916 297L890.263 311.99Z" fill="black"/>
<path d="M877.263 385.99L871.099 380.082L869 382.08L877.263 390L895 372.998L892.916 371L877.263 385.99Z" fill="black"/>
<path d="M864.263 470.99L858.099 465.082L856 467.08L864.263 475L882 457.998L879.916 456L864.263 470.99Z" fill="black"/>
<path d="M890.263 470.99L884.099 465.082L882 467.08L890.263 475L908 457.998L905.916 456L890.263 470.99Z" fill="black"/>
<path d="M619.263 389.779L613.099 383.56L611 385.663L619.263 394L637 376.103L634.916 374L619.263 389.779Z" fill="black"/>
<path d="M619.263 469.99L613.099 464.082L611 466.08L619.263 474L637 456.998L634.916 455L619.263 469.99Z" fill="black"/>
<path d="M619.263 545.99L613.099 540.082L611 542.08L619.263 550L637 532.998L634.916 531L619.263 545.99Z" fill="black"/>
<path d="M864.263 545.99L858.099 540.082L856 542.08L864.263 550L882 532.998L879.916 531L864.263 545.99Z" fill="black"/>
<path d="M703.844 803.594L697.624 797.842L695.507 799.787L703.844 807.498L721.741 790.945L719.638 789L703.844 803.594Z" fill="black"/>
<path d="M890.263 545.99L884.099 540.082L882 542.08L890.263 550L908 532.998L905.916 531L890.263 545.99Z" fill="black"/>
<path d="M729.844 803.594L723.624 797.842L721.507 799.787L729.844 807.498L747.741 790.945L745.638 789L729.844 803.594Z" fill="black"/>
<path d="M1048.84 803.594L1042.62 797.842L1040.51 799.787L1048.84 807.498L1066.74 790.945L1064.64 789L1048.84 803.594Z" fill="black"/>
<path d="M390 375.914L387.986 374L380 381.586L372.014 374L370 375.914L377.986 383.5L370 391.086L372.014 393L380 385.414L387.986 393L390 391.086L382.014 383.5L390 375.914Z" fill="black"/>
<path d="M1128 381.914L1125.99 380L1118 387.586L1110.01 380L1108 381.914L1115.99 389.5L1108 397.086L1110.01 399L1118 391.414L1125.99 399L1128 397.086L1120.01 389.5L1128 381.914Z" fill="black"/>
<path d="M390 452.914L387.986 451L380 458.586L372.014 451L370 452.914L377.986 460.5L370 468.086L372.014 470L380 462.414L387.986 470L390 468.086L382.014 460.5L390 452.914Z" fill="black"/>
<path d="M1128 458.914L1125.99 457L1118 464.586L1110.01 457L1108 458.914L1115.99 466.5L1108 474.086L1110.01 476L1118 468.414L1125.99 476L1128 474.086L1120.01 466.5L1128 458.914Z" fill="black"/>
<path d="M390 531.914L387.986 530L380 537.586L372.014 530L370 531.914L377.986 539.5L370 547.086L372.014 549L380 541.414L387.986 549L390 547.086L382.014 539.5L390 531.914Z" fill="black"/>
<path d="M1128 534.914L1125.99 533L1118 540.586L1110.01 533L1108 534.914L1115.99 542.5L1108 550.086L1110.01 552L1118 544.414L1125.99 552L1128 550.086L1120.01 542.5L1128 534.914Z" fill="black"/>
<path d="M390 609.914L387.986 608L380 615.586L372.014 608L370 609.914L377.986 617.5L370 625.086L372.014 627L380 619.414L387.986 627L390 625.086L382.014 617.5L390 609.914Z" fill="black"/>
<path d="M1128 612.914L1125.99 611L1118 618.586L1110.01 611L1108 612.914L1115.99 620.5L1108 628.086L1110.01 630L1118 622.414L1125.99 630L1128 628.086L1120.01 620.5L1128 612.914Z" fill="black"/>
<path d="M632 610.914L629.986 609L622 616.586L614.014 609L612 610.914L619.986 618.5L612 626.086L614.014 628L622 620.414L629.986 628L632 626.086L624.014 618.5L632 610.914Z" fill="black"/>
<path d="M464.507 790.863L462.492 789L454.507 796.386L446.521 789L444.507 790.863L452.492 798.249L444.507 805.635L446.521 807.498L454.507 800.112L462.492 807.498L464.507 805.635L456.521 798.249L464.507 790.863Z" fill="black"/>
<path d="M891 612.914L888.986 611L881 618.586L873.014 611L871 612.914L878.986 620.5L871 628.086L873.014 630L881 622.414L888.986 630L891 628.086L883.014 620.5L891 612.914Z" fill="black"/>
</svg>
